<svg aria-hidden="true" style="width:0;height:0;position:absolute;overflow:hidden" xmlns="http://www.w3.org/2000/svg"><defs><symbol id="arrow-default" viewBox="0 0 82 32"><path d="M81.414 17.414a2 2 0 0 0 0-2.828L68.686 1.858a2 2 0 1 0-2.828 2.828L77.172 16 65.858 27.314a2 2 0 1 0 2.828 2.828l12.728-12.728zM0 18h80v-4H0v4z"/></symbol><symbol id="arrow-focus" viewBox="0 0 69 32"><path d="M68.081 17.414a2 2 0 0 0 0-2.829L55.353 1.857a2 2 0 1 0-2.828 2.828l11.314 11.314-11.314 11.314a2 2 0 1 0 2.828 2.828l12.728-12.728zM0 18h66.667v-4H0v4z"/></symbol><symbol id="arrow-hover" viewBox="0 0 102 32"><path d="M101.414 17.414a2 2 0 0 0 0-2.828L88.686 1.858a2 2 0 1 0-2.828 2.828L97.172 16 85.858 27.314a2 2 0 1 0 2.828 2.828l12.728-12.728zM0 18h100v-4H0v4z"/></symbol><symbol id="menu_close" viewBox="0 0 32 32"><path d="M23.884 6.706 16 14.59 8.116 6.706a.995.995 0 0 0-1.38.031 1 1 0 0 0-.031 1.38l7.88 7.884-7.882 7.882a1.002 1.002 0 0 0-.018 1.427.998.998 0 0 0 1.427-.015l7.886-7.882 7.884 7.884a1 1 0 0 0 1.38-.03 1 1 0 0 0 .03-1.38l-7.884-7.884 7.884-7.886a1.002 1.002 0 0 0 .018-1.427.998.998 0 0 0-1.427.015v.002z"/></symbol><symbol id="menu_open" viewBox="0 0 32 32"><path stroke-linecap="round" stroke-width="2" d="M6 10h20M6 16h20M6 22h20"/></symbol><symbol id="modal_close" viewBox="0 0 30 32"><path d="m16.239 15.371 6.935-7.007a.853.853 0 0 0-.044-1.147.83.83 0 0 0-1.136-.044l-6.935 7.007-6.935-7.016a.833.833 0 0 0-1.188 0 .85.85 0 0 0 0 1.2l6.944 7.007-6.944 7.007a.837.837 0 0 0-.292.61.865.865 0 0 0 .244.63.84.84 0 0 0 .623.247.835.835 0 0 0 .603-.295l6.944-7.007 6.935 7.007a.828.828 0 0 0 1.136-.044.852.852 0 0 0 .044-1.147l-6.935-7.007z"/></symbol><symbol id="socials_facebook" viewBox="0 0 32 32"><path d="M16 32c8.837 0 16-7.163 16-16S24.837 0 16 0 0 7.163 0 16s7.163 16 16 16z"/><path d="M20.446 15.982h-2.61V25.6h-3.955v-9.618H12v-3.38h1.881v-2.187c0-1.564.739-4.014 3.99-4.014l2.929.012v3.281h-2.125c-.349 0-.839.175-.839.921v1.989h2.955l-.346 3.377z"/></symbol><symbol id="socials_github" viewBox="0 0 32 32"><path d="M32 16c0 8.837-7.163 16-16 16S0 24.837 0 16 7.163 0 16 0s16 7.163 16 16z"/><path d="M16 6.588c-5.169 0-9.412 4.242-9.412 9.412 0 4.411 3.095 8.419 7.206 9.412v-3.114a2.307 2.307 0 0 1-1.197-.03c-.556-.164-1.008-.535-1.344-1.1-.214-.361-.593-.752-.988-.723l-.097-1.099c.855-.073 1.595.521 2.034 1.259.195.328.419.52.708.605.278.082.578.043.926-.08.088-.698.407-.959.648-1.326v-.001c-2.451-.366-3.428-1.666-3.816-2.693-.514-1.363-.238-3.066.671-4.142.018-.021.05-.076.037-.114-.417-1.258.091-2.299.11-2.41.481.142.559-.143 2.089.786l.264.159c.111.066.076.028.186.02A8.031 8.031 0 0 1 16 11.131a8.016 8.016 0 0 1 2.002.285l.086.009c-.007-.001.023-.005.075-.036 1.911-1.157 1.842-.779 2.355-.946.019.111.519 1.169.107 2.411-.056.171 1.657 1.739.708 4.256-.388 1.027-1.365 2.328-3.816 2.693v.001c.314.479.692.734.69 1.722v3.887c4.111-.993 7.206-5 7.206-9.412 0-5.169-4.242-9.412-9.412-9.412z"/></symbol><symbol id="socials_telegram" viewBox="0 0 32 32"><path d="M32 16c0 8.837-7.163 16-16 16S0 24.837 0 16 7.163 0 16 0s16 7.163 16 16z"/><path d="m12.869 18.375-.318 4.169c.454 0 .651-.182.887-.401l2.13-1.9 4.415 3.017c.81.421 1.38.199 1.598-.695l2.898-12.672.001-.001c.257-1.117-.433-1.554-1.222-1.28L6.226 14.698c-1.162.421-1.145 1.026-.198 1.3l4.354 1.264 10.115-5.907c.476-.294.909-.131.553.163l-8.182 6.857z"/></symbol><symbol id="icon-header-arrow" viewBox="0 0 32 32"><path stroke-linejoin="round" stroke-linecap="round" stroke-width="5.333" d="M10.667 5.333 23.867 16l-13.2 10.667"/></symbol><symbol id="icon-open" viewBox="0 0 50 32"><path d="M0 2.286A2.286 2.286 0 0 1 2.286 0H48a2.286 2.286 0 0 1 0 4.572H2.286A2.286 2.286 0 0 1 0 2.286zM0 16a2.286 2.286 0 0 1 2.286-2.286H48a2.286 2.286 0 0 1 0 4.572H2.286A2.286 2.286 0 0 1 0 16zm0 13.714a2.286 2.286 0 0 1 2.286-2.286H48A2.286 2.286 0 0 1 48 32H2.286A2.286 2.286 0 0 1 0 29.714z"/></symbol><symbol id="facebook" viewBox="0 0 31 32"><path fill="#f8d24e" style="fill:var(--color1,#f8d24e)" d="M15.515 31.949c8.569 0 15.515-6.948 15.515-15.519S24.084.912 15.515.912 0 7.859 0 16.43c0 8.571 6.946 15.519 15.515 15.519z"/><path d="M19.826 16.412h-2.531v9.329h-3.836v-9.328h-1.823v-3.28h1.823v-2.122c0-1.517.718-3.892 3.869-3.892l2.841.012v3.183h-2.061c-.339 0-.815.17-.815.894v1.93h2.866l-.335 3.276z"/></symbol><symbol id="github" viewBox="0 0 31 32"><path fill="#f8d24e" style="fill:var(--color1,#f8d24e)" d="M31.03 16.43c0 8.571-6.946 15.519-15.515 15.519S0 25.001 0 16.43 6.946.911 15.515.911 31.03 7.859 31.03 16.43z"/><path d="M15.515 7.301c-5.013 0-9.127 4.114-9.127 9.129 0 4.278 3.001 8.165 6.988 9.129v-3.02a2.251 2.251 0 0 1-1.176-.033l.016.004c-.539-.16-.977-.52-1.303-1.067-.207-.351-.574-.73-.958-.702l-.094-1.067c.829-.07 1.547.506 1.972 1.222.189.318.407.504.686.587.271.079.56.042.898-.078.085-.677.395-.931.629-1.287-2.378-.355-3.325-1.616-3.7-2.612-.498-1.322-.232-2.973.65-4.017.017-.019.049-.074.036-.111-.403-1.221.088-2.23.107-2.337.465.138.542-.139 2.025.762l.257.154c.107.064.074.027.18.019a7.557 7.557 0 0 1 1.91-.27h.006a7.78 7.78 0 0 1 1.996.29l-.055-.013.082.008c-.007 0 .023-.005.073-.035 1.853-1.122 1.786-.755 2.284-.917.017.108.504 1.135.104 2.339-.053.166 1.607 1.687.687 4.128-.376.996-1.324 2.257-3.7 2.612.305.465.67.712.669 1.67v3.77c3.985-.963 6.987-4.85 6.987-9.129 0-5.013-4.113-9.129-9.126-9.129z"/></symbol><symbol id="telegram" viewBox="0 0 32 32"><path fill="#f8d24e" style="fill:var(--color1,#f8d24e)" d="M31.258 16.43c0 8.571-6.946 15.519-15.515 15.519S.228 25.001.228 16.43 7.174.911 15.743.911 31.258 7.859 31.258 16.43z"/><path d="m12.705 18.735-.307 4.044c.44 0 .63-.177.86-.39l2.065-1.842 4.281 2.927c.785.407 1.338.194 1.55-.675l2.81-12.291c.25-1.084-.419-1.508-1.183-1.241L6.264 15.169c-1.128.407-1.11.995-.192 1.261l4.223 1.226 9.807-5.729c.462-.285.882-.128.536.158l-7.934 6.65z"/><symbol id="contacts-button__icon" viewBox="0 0 32 32"><path fill="none" stroke-linejoin="round" stroke-linecap="round" stroke-width="5.333" d="M10.667 5.333 23.867 16l-13.2 10.667"/></symbol></symbol></defs></svg>