<svg width="180" height="164" viewBox="0 0 180 164" fill="none" xmlns="http://www.w3.org/2000/svg">
<g clip-path="url(#clip0_105_11232)">
<path d="M68.5184 112.017C76.1577 109.574 78.9404 97.9659 74.7339 86.0901C70.5273 74.2142 60.9244 66.5677 53.2852 69.0111C45.6459 71.4545 42.8632 83.0626 47.0697 94.9384C51.2763 106.814 60.8792 114.461 68.5184 112.017Z" fill="white"/>
<path d="M53.6262 69.9739C60.5761 67.751 69.7773 75.2772 73.722 86.4139C77.6666 97.5507 75.1271 108.832 68.1772 111.055C61.2273 113.278 52.0261 105.752 48.0814 94.6149C44.1368 83.4781 46.683 72.1946 53.6262 69.9739ZM52.9441 68.0482C44.7459 70.6704 41.6623 82.8546 46.0572 95.2623C50.452 107.67 60.6611 115.603 68.8593 112.981C77.0575 110.358 80.1411 98.1742 75.7462 85.7665C71.3513 73.3588 61.1491 65.424 52.9441 68.0482Z" fill="black"/>
<path d="M115.12 97.1362C122.759 94.6928 125.542 83.0848 121.335 71.209C117.129 59.3331 107.526 51.6866 99.8868 54.13C92.2475 56.5734 89.4648 68.1815 93.6713 80.0573C97.8778 91.9331 107.481 99.5796 115.12 97.1362Z" fill="white"/>
<path d="M100.228 55.0928C107.178 52.8699 116.379 60.396 120.324 71.5328C124.268 82.6696 121.729 93.9509 114.779 96.1738C107.829 98.3967 98.6277 90.8705 94.683 79.7338C90.7383 68.597 93.2846 57.3135 100.228 55.0928ZM99.5457 53.1671C91.3475 55.7893 88.2639 67.9735 92.6588 80.3812C97.0536 92.7889 107.263 100.722 115.461 98.0994C123.659 95.4773 126.743 83.2931 122.348 70.8854C117.953 58.4777 107.751 50.5429 99.5457 53.1671Z" fill="black"/>
<path d="M64.6538 101.106C68.9392 99.7355 70.5302 93.3077 68.2072 86.7494C65.8842 80.1911 60.527 75.9856 56.2415 77.3563C51.956 78.727 50.3651 85.1547 52.6881 91.7131C55.0111 98.2714 60.3683 102.477 64.6538 101.106Z" fill="black"/>
<path d="M56.3552 77.6769C60.4509 76.3669 65.6122 80.483 67.8699 86.857C70.1276 93.2309 68.6359 99.475 64.5401 100.785C60.4444 102.095 55.283 97.9788 53.0253 91.6049C50.7677 85.2309 52.2662 78.9847 56.3552 77.6769ZM56.1278 77.035C51.6542 78.4658 49.9656 85.0872 52.3506 91.8207C54.7356 98.5541 60.2939 102.858 64.7675 101.427C69.2411 99.996 70.9297 93.3746 68.5447 86.6411C66.1597 79.9077 60.6014 75.6041 56.1278 77.035Z" fill="black"/>
<path d="M111.256 86.2246C115.541 84.8539 117.132 78.4261 114.809 71.8678C112.486 65.3095 107.129 61.104 102.844 62.4747C98.5581 63.8454 96.9671 70.2731 99.2901 76.8315C101.613 83.3898 106.97 87.5952 111.256 86.2246Z" fill="black"/>
<path d="M102.957 62.7953C107.053 61.4853 112.214 65.6014 114.472 71.9754C116.73 78.3493 115.238 84.5934 111.142 85.9034C107.046 87.2133 101.885 83.0973 99.6274 76.7233C97.3697 70.3493 98.8682 64.1031 102.957 62.7953ZM102.73 62.1534C98.2562 63.5842 96.5676 70.2057 98.9526 76.9391C101.338 83.6725 106.896 87.9761 111.37 86.5452C115.843 85.1144 117.532 78.493 115.147 71.7595C112.762 65.0261 107.203 60.7225 102.73 62.1534Z" fill="black"/>
<path d="M57.3556 90.9348C59.9347 90.1099 61.1093 86.8545 59.9791 83.6637C58.8488 80.473 55.8418 78.5551 53.2627 79.3801C50.6836 80.205 49.509 83.4604 50.6392 86.6512C51.7695 89.8419 54.7765 91.7598 57.3556 90.9348Z" fill="white"/>
<path d="M103.504 74.7698C106.083 73.9448 107.257 70.6895 106.127 67.4987C104.997 64.3079 101.99 62.3901 99.4106 63.215C96.8315 64.04 95.657 67.2954 96.7872 70.4861C97.9174 73.6769 100.924 75.5947 103.504 74.7698Z" fill="white"/>
<path d="M40.8025 61.3257C41.9344 57.419 43.9512 53.4007 48.0688 51.7025C51.9052 50.1229 56.2101 51.114 59.9022 52.6022C62.4298 53.6256 64.3401 49.9851 61.7967 48.9596C56.8814 46.9682 51.2446 45.8666 46.1807 48.0326C40.8492 50.313 38.098 55.3756 36.6154 60.4973C35.883 63.0303 40.07 63.8372 40.8025 61.3257Z" fill="black"/>
<path d="M89.961 41.5967C100.681 42.7434 111.716 41.3451 121.691 37.4264C124.219 36.4375 122.868 32.563 120.321 33.5648C111.063 37.1963 100.802 38.6767 90.8237 37.6078C88.1025 37.311 87.2241 41.2979 89.961 41.5967Z" fill="black"/>
<path d="M105.41 137.729C70.5324 148.866 36.5707 141.804 29.5508 121.954" stroke="black" stroke-width="3" stroke-miterlimit="10"/>
<path d="M155.849 81.6232C162.869 101.474 140.287 126.592 105.41 137.729" stroke="black" stroke-width="3" stroke-miterlimit="10"/>
<path d="M22.6893 125.931L35.9592 116.693" stroke="black" stroke-width="3" stroke-miterlimit="10"/>
<path d="M150.105 82.3857L161.367 80.2191" stroke="black" stroke-width="3" stroke-miterlimit="10"/>
</g>
<defs>
<clipPath id="clip0_105_11232">
<rect width="147.086" height="122.812" fill="white" transform="matrix(0.948852 -0.315721 0.321378 0.946951 0 47.3103)"/>
</clipPath>
</defs>
</svg>
