<svg width="83" height="83" viewBox="0 0 83 83" fill="none" xmlns="http://www.w3.org/2000/svg">
<g clip-path="url(#clip0_123_289)">
<path d="M30.638 40.7004C33.4787 42.7244 38.4221 40.5451 41.6793 35.8328C44.9366 31.1206 45.2743 25.6598 42.4336 23.6359C39.5929 21.6119 34.6495 23.7912 31.3923 28.5035C28.135 33.2157 27.7973 38.6765 30.638 40.7004Z" fill="#FCFCFC"/>
<path d="M42.1666 24.0181C44.7509 25.8594 44.3546 31.1459 41.3001 35.5649C38.2457 39.9839 33.4836 42.16 30.8993 40.3187C28.315 38.4775 28.7113 33.1909 31.7657 28.772C34.8202 24.353 39.5848 22.1787 42.1666 24.0181ZM42.6947 23.2541C39.6462 21.0821 34.4161 23.3124 31.013 28.2357C27.61 33.159 27.3227 38.9109 30.3712 41.0828C33.4197 43.2548 38.6498 41.0245 42.0529 36.1012C45.4559 31.1779 45.7457 25.4278 42.6947 23.2541Z" fill="#131313"/>
<path d="M47.9476 53.0352C50.7883 55.0591 55.7317 52.8798 58.9889 48.1676C62.2462 43.4553 62.5838 37.9945 59.7431 35.9706C56.9025 33.9466 51.9591 36.1259 48.7018 40.8382C45.4446 45.5505 45.1069 51.0112 47.9476 53.0352Z" fill="#FCFCFC"/>
<path d="M59.4781 36.3521C62.0624 38.1934 61.6662 43.4799 58.6117 47.8989C55.5572 52.3179 50.7952 54.494 48.2108 52.6527C45.6265 50.8115 46.0228 45.5249 49.0773 41.1059C52.1317 36.687 56.8963 34.5127 59.4781 36.3521ZM60.0062 35.588C56.9577 33.4161 51.7276 35.6464 48.3246 40.5697C44.9215 45.4929 44.6342 51.2448 47.6827 53.4168C50.7312 55.5888 55.9613 53.3585 59.3644 48.4352C62.7674 43.5119 63.0573 37.7618 60.0062 35.588Z" fill="#131313"/>
<path d="M36.3949 34.5393C37.9885 35.6747 40.7385 34.4855 42.5373 31.8832C44.3361 29.2809 44.5024 26.251 42.9088 25.1156C41.3153 23.9802 38.5653 25.1694 36.7665 27.7717C34.9677 30.374 34.8014 33.404 36.3949 34.5393Z" fill="#131313"/>
<path d="M42.8211 25.2427C44.3441 26.3278 44.1603 29.2645 42.4121 31.7936C40.6638 34.3227 38.0061 35.4967 36.4831 34.4116C34.9602 33.3265 35.144 30.3898 36.8922 27.8607C38.6404 25.3316 41.3006 24.1593 42.8211 25.2427ZM42.9972 24.988C41.3337 23.8027 38.4881 25.0102 36.6413 27.682C34.7945 30.3537 34.6436 33.4811 36.3071 34.6663C37.9706 35.8515 40.8161 34.6441 42.663 31.9723C44.5098 29.3006 44.6606 26.1732 42.9972 24.988Z" fill="#131313"/>
<path d="M53.9545 47.0523C55.5481 48.1877 58.2981 46.9985 60.0969 44.3962C61.8956 41.7939 62.062 38.7639 60.4684 37.6285C58.8748 36.4932 56.1248 37.6823 54.3261 40.2846C52.5273 42.8869 52.3609 45.9169 53.9545 47.0523Z" fill="#131313"/>
<path d="M60.3817 37.7558C61.9046 38.8409 61.7208 41.7776 59.9726 44.3068C58.2244 46.8359 55.5667 48.0099 54.0437 46.9248C52.5207 45.8397 52.7045 42.903 54.4527 40.3739C56.201 37.8448 58.8612 36.6725 60.3817 37.7558ZM60.5577 37.5011C58.8942 36.3159 56.0487 37.5234 54.2018 40.1951C52.355 42.8669 52.2042 45.9943 53.8676 47.1795C55.5311 48.3647 58.3767 47.1573 60.2235 44.4855C62.0703 41.8138 62.2212 38.6864 60.5577 37.5011Z" fill="#131313"/>
<path d="M35.5384 33.359C36.2839 33.8901 37.44 33.5225 38.1206 32.5379C38.8012 31.5532 38.7486 30.3244 38.0032 29.7933C37.2577 29.2621 36.1016 29.6297 35.421 30.6144C34.7403 31.599 34.7929 32.8278 35.5384 33.359Z" fill="#FCFCFC"/>
<path d="M53.1742 46.306C53.9196 46.8371 55.0757 46.4695 55.7564 45.4849C56.437 44.5003 56.3844 43.2715 55.6389 42.7403C54.8934 42.2092 53.7373 42.5768 53.0567 43.5614C52.3761 44.546 52.4287 45.7748 53.1742 46.306Z" fill="#FCFCFC"/>
<path d="M39.9082 16.3982C43.4174 16.5271 46.5405 18.2277 48.6125 21.1024C49.3125 22.0723 50.7279 20.8805 50.0329 19.9141C47.6892 16.6634 44.0276 14.6855 40.0622 14.5394C38.8822 14.4967 38.7197 16.357 39.9082 16.3982Z" fill="#131313"/>
<path d="M60.3147 29.0385C63.6235 30.2483 66.0708 32.8508 67.1832 36.2199C67.5604 37.3589 69.2283 36.5711 68.8551 35.4425C67.5911 31.6157 64.6661 28.6425 60.9323 27.2782C59.8195 26.873 59.1968 28.6297 60.3147 29.0385Z" fill="#131313"/>
<path d="M30.9024 58.1886C17.9476 48.9573 11.8606 35.0891 17.3066 27.2114" stroke="#131313" stroke-width="1.61043" stroke-miterlimit="10"/>
<path d="M64.2177 60.6396C58.7717 68.5173 43.8562 67.4195 30.9014 58.1882" stroke="#131313" stroke-width="1.61043" stroke-miterlimit="10"/>
<path d="M14.1063 25.8812L20.8579 28.0312" stroke="#131313" stroke-width="1.61043" stroke-miterlimit="10"/>
<path d="M62.4736 58.8276L66.1353 62.1972" stroke="#131313" stroke-width="1.61043" stroke-miterlimit="10"/>
<path d="M37.2031 18.0229C36.9485 18.4346 36.3727 19.4841 36.3697 20.9455C36.3676 22.2214 36.8011 23.1652 37.0333 23.593" stroke="#131313" stroke-width="1.07362" stroke-miterlimit="10"/>
<path d="M38.207 18.9148C38.0909 19.2236 37.829 20.014 37.8277 21.1155C37.8262 22.0763 38.0237 22.7873 38.1275 23.1084" stroke="#131313" stroke-width="1.07362" stroke-miterlimit="10"/>
<path d="M39.7656 20.166C39.6416 20.3779 39.3617 20.9236 39.3608 21.6833C39.3604 22.3445 39.5707 22.8365 39.6837 23.0577" stroke="#131313" stroke-width="1.07362" stroke-miterlimit="10"/>
<path d="M66.9602 38.8459C66.6654 39.2289 65.8889 40.1354 64.5362 40.6351C63.3551 41.0708 62.3335 40.9777 61.8583 40.9014" stroke="#131313" stroke-width="1.07362" stroke-miterlimit="10"/>
<path d="M65.7972 38.1937C65.5506 38.4096 64.9075 38.9283 63.8876 39.304C62.9981 39.632 62.2724 39.6851 61.9397 39.6951" stroke="#131313" stroke-width="1.07362" stroke-miterlimit="10"/>
<path d="M64.1057 37.1311C63.9516 37.3216 63.5412 37.7743 62.8379 38.0334C62.2254 38.2585 61.6982 38.2249 61.4549 38.1922" stroke="#131313" stroke-width="1.07362" stroke-miterlimit="10"/>
<path d="M31.3044 59.2065C32.4275 58.2934 32.137 56.0307 30.6557 54.1526C29.1743 52.2746 27.0629 51.4923 25.9398 52.4055C24.8167 53.3186 25.1071 55.5813 26.5885 57.4593C28.0699 59.3374 30.1813 60.1196 31.3044 59.2065Z" fill="#131313" stroke="#131313" stroke-width="1.61043" stroke-miterlimit="10"/>
<path d="M30.0841 60.4557C32.3702 62.0847 34.4205 63.1202 34.6636 62.7686C34.9067 62.4169 33.2506 60.8113 30.9645 59.1823C28.6784 57.5532 26.6281 56.5177 26.385 56.8694C26.1419 57.2211 27.798 58.8267 30.0841 60.4557Z" fill="#131313" stroke="#131313" stroke-width="1.61043" stroke-miterlimit="10"/>
<path d="M33.817 62.6771C35.9745 63.6722 38.2059 63.4008 38.801 62.0708C39.3961 60.7409 38.1295 58.8562 35.972 57.8611C33.8144 56.866 31.583 57.1374 30.9879 58.4673C30.3929 59.7972 31.6595 61.682 33.817 62.6771Z" fill="#131313" stroke="#131313" stroke-width="1.61043" stroke-miterlimit="10"/>
</g>
<defs>
<clipPath id="clip0_123_289">
<rect width="66.5453" height="51.2167" fill="white" transform="matrix(0.80675 0.590893 -0.558095 0.829777 29.0684 0.417236)"/>
</clipPath>
</defs>
</svg>
