<svg width="234" height="221" viewBox="0 0 234 221" fill="none" xmlns="http://www.w3.org/2000/svg">
<g clip-path="url(#clip0_3539_133)">
<path d="M85.0643 112.191C93.1448 117.585 107.219 111.777 116.5 99.22C125.781 86.6629 126.755 72.1115 118.674 66.7184C110.594 61.3253 96.5192 67.1329 87.2381 79.6899C77.957 92.2469 76.9838 106.798 85.0643 112.191Z" fill="white"/>
<path d="M117.922 67.7365C125.273 72.6429 124.133 86.7302 115.43 98.5057C106.726 110.281 93.1679 116.08 85.8165 111.174C78.4652 106.267 79.6049 92.18 88.3084 80.4044C97.0118 68.6289 110.577 62.8349 117.922 67.7365ZM119.426 65.7004C110.755 59.9127 95.8639 65.856 86.1672 78.9754C76.4705 92.0948 75.6399 107.422 84.3116 113.21C92.9833 118.997 107.874 113.054 117.571 99.9348C127.268 86.8154 128.105 71.4928 119.426 65.7004Z" fill="black"/>
<path d="M134.348 145.062C142.428 150.455 156.502 144.647 165.783 132.09C175.065 119.533 176.038 104.982 167.957 99.5888C159.877 94.1957 145.802 100.003 136.521 112.56C127.24 125.117 126.267 139.669 134.348 145.062Z" fill="white"/>
<path d="M167.205 100.607C174.556 105.513 173.416 119.601 164.713 131.376C156.009 143.152 142.451 148.95 135.1 144.044C127.748 139.138 128.888 125.05 137.592 113.275C146.295 101.499 159.861 95.7052 167.205 100.607ZM168.71 98.5708C160.038 92.7831 145.147 98.7264 135.45 111.846C125.754 124.965 124.923 140.292 133.595 146.08C142.267 151.868 157.157 145.925 166.854 132.805C176.551 119.686 177.388 104.363 168.71 98.5708Z" fill="black"/>
<path d="M101.462 95.7722C105.995 98.7976 113.825 95.6286 118.95 88.6941C124.075 81.7596 124.556 73.6855 120.023 70.6601C115.49 67.6347 107.66 70.8036 102.535 77.7381C97.4092 84.6726 96.929 92.7468 101.462 95.7722Z" fill="black"/>
<path d="M119.772 70.9996C124.104 73.8911 123.575 81.7166 118.594 88.4562C113.612 95.1958 106.045 98.3245 101.713 95.4331C97.3808 92.5417 97.9103 84.7161 102.892 77.9765C107.873 71.237 115.447 68.113 119.772 70.9996ZM120.274 70.3209C115.542 67.1627 107.44 70.3805 102.178 77.5002C96.9157 84.6198 96.4794 92.9536 101.211 96.1118C105.943 99.27 114.045 96.0522 119.307 88.9325C124.569 81.8129 125.006 73.4791 120.274 70.3209Z" fill="black"/>
<path d="M151.459 129.118C155.992 132.144 163.822 128.975 168.947 122.04C174.073 115.106 174.553 107.032 170.02 104.006C165.487 100.981 157.657 104.15 152.532 111.084C147.406 118.019 146.926 126.093 151.459 129.118Z" fill="black"/>
<path d="M169.769 104.346C174.101 107.237 173.572 115.063 168.591 121.802C163.609 128.542 156.042 131.671 151.71 128.779C147.378 125.888 147.907 118.062 152.889 111.323C157.87 104.583 165.444 101.459 169.769 104.346ZM170.271 103.667C165.539 100.509 157.437 103.727 152.175 110.846C146.913 117.966 146.477 126.3 151.209 129.458C155.94 132.616 164.042 129.398 169.304 122.279C174.566 115.159 175.003 106.825 170.271 103.667Z" fill="black"/>
<path d="M99.0321 92.6297C101.153 94.0453 104.445 93.0656 106.384 90.4416C108.323 87.8177 108.176 84.543 106.055 83.1275C103.935 81.712 100.643 82.6916 98.7037 85.3156C96.7642 87.9396 96.9113 91.2142 99.0321 92.6297Z" fill="white"/>
<path d="M149.243 127.131C151.363 128.547 154.655 127.567 156.594 124.943C158.534 122.319 158.387 119.045 156.266 117.629C154.145 116.214 150.854 117.193 148.914 119.817C146.975 122.441 147.122 125.716 149.243 127.131Z" fill="white"/>
<path d="M111.48 47.4315C121.476 47.7709 130.365 52.3053 136.252 59.9742C138.241 62.5617 142.28 59.3792 140.305 56.8011C133.645 48.1291 123.224 42.8555 111.928 42.4708C108.567 42.3586 108.094 47.3234 111.48 47.4315Z" fill="black"/>
<path d="M169.572 81.1107C178.992 84.3352 185.95 91.2767 189.102 100.265C190.171 103.304 194.926 101.2 193.868 98.1892C190.287 87.9796 181.969 80.0494 171.34 76.4131C168.172 75.333 166.39 80.0211 169.572 81.1107Z" fill="black"/>
<path d="M85.8361 158.795C48.9524 134.195 31.6219 97.238 47.1274 76.2451" stroke="black" stroke-width="3" stroke-miterlimit="10"/>
<path d="M180.692 165.328C165.186 186.32 122.72 183.395 85.8363 158.795" stroke="black" stroke-width="3" stroke-miterlimit="10"/>
<path d="M38.0172 72.7017L57.2398 78.431" stroke="black" stroke-width="3" stroke-miterlimit="10"/>
<path d="M175.729 160.498L186.155 169.478" stroke="black" stroke-width="3" stroke-miterlimit="10"/>
<path d="M103.784 51.7593C103.059 52.8562 101.42 55.653 101.411 59.5476C101.405 62.9476 102.639 65.4625 103.301 66.6025" stroke="black" stroke-width="2" stroke-miterlimit="10"/>
<path d="M106.634 54.1365C106.304 54.9594 105.558 57.0658 105.554 60.0011C105.55 62.5615 106.112 64.4561 106.408 65.3117" stroke="black" stroke-width="2" stroke-miterlimit="10"/>
<path d="M111.07 57.4695C110.717 58.0343 109.92 59.4884 109.917 61.5128C109.916 63.2749 110.515 64.5861 110.837 65.1754" stroke="black" stroke-width="2" stroke-miterlimit="10"/>
<path d="M188.502 107.25C187.663 108.271 185.453 110.687 181.601 112.018C178.238 113.179 175.33 112.931 173.977 112.728" stroke="black" stroke-width="2" stroke-miterlimit="10"/>
<path d="M185.181 105.511C184.479 106.086 182.648 107.469 179.745 108.47C177.212 109.344 175.146 109.485 174.199 109.512" stroke="black" stroke-width="2" stroke-miterlimit="10"/>
<path d="M180.375 102.68C179.936 103.188 178.768 104.394 176.765 105.085C175.021 105.685 173.52 105.595 172.828 105.508" stroke="black" stroke-width="2" stroke-miterlimit="10"/>
<path d="M86.9822 161.506C90.1798 159.073 89.3529 153.043 85.1353 148.038C80.9176 143.034 74.9064 140.949 71.7088 143.383C68.5111 145.816 69.338 151.846 73.5557 156.85C77.7733 161.855 83.7846 163.94 86.9822 161.506Z" fill="black" stroke="black" stroke-width="3" stroke-miterlimit="10"/>
<path d="M83.5046 164.838C90.0133 169.179 95.8508 171.938 96.5429 171.001C97.2351 170.064 92.5199 165.785 86.0111 161.444C79.5024 157.103 73.665 154.344 72.9728 155.281C72.2806 156.218 76.9959 160.497 83.5046 164.838Z" fill="black" stroke="black" stroke-width="3" stroke-miterlimit="10"/>
<path d="M94.1344 170.755C100.277 173.407 106.63 172.684 108.324 169.14C110.019 165.596 106.413 160.573 100.27 157.922C94.1271 155.27 87.774 155.993 86.0797 159.537C84.3855 163.081 87.9917 168.104 94.1344 170.755Z" fill="black" stroke="black" stroke-width="3" stroke-miterlimit="10"/>
</g>
<defs>
<clipPath id="clip0_3539_133">
<rect width="186.726" height="139.407" fill="white" transform="matrix(0.821168 0.570687 -0.578294 0.815828 80.6182 0)"/>
</clipPath>
</defs>
</svg>
