<svg width="101" height="95" viewBox="0 0 101 95" fill="none" xmlns="http://www.w3.org/2000/svg">
<g clip-path="url(#clip0_118_1473)">
<path d="M38.3817 61.906C42.6475 60.4709 44.2067 53.6501 41.8643 46.6713C39.5219 39.6924 34.1649 35.1984 29.8991 36.6335C25.6334 38.0686 24.0742 44.8894 26.4166 51.8682C28.759 58.847 34.116 63.3411 38.3817 61.906Z" fill="white"/>
<path d="M30.0887 37.1989C33.9695 35.8933 39.1022 40.3165 41.2989 46.8609C43.4956 53.4053 42.0725 60.0341 38.1917 61.3397C34.311 62.6454 29.1783 58.2222 26.9816 51.6777C24.7849 45.1333 26.2117 38.5032 30.0887 37.1989ZM29.7089 36.0673C25.1311 37.6074 23.4039 44.7667 25.8513 52.058C28.2986 59.3493 33.9938 64.0115 38.5716 62.4713C43.1493 60.9312 44.8766 53.7719 42.4292 46.4806C39.9818 39.1893 34.2904 34.5259 29.7089 36.0673Z" fill="black"/>
<path d="M64.3778 53.1599C68.6436 51.7248 70.2028 44.904 67.8604 37.9252C65.518 30.9464 60.161 26.4523 55.8952 27.8874C51.6295 29.3225 50.0703 36.1433 52.4127 43.1221C54.7551 50.1009 60.1121 54.595 64.3778 53.1599Z" fill="white"/>
<path d="M56.0853 28.4528C59.966 27.1472 65.0988 31.5704 67.2955 38.1148C69.4921 44.6592 68.0691 51.288 64.1883 52.5937C60.3076 53.8993 55.1748 49.4761 52.9782 42.9316C50.7815 36.3872 52.2083 29.7571 56.0853 28.4528ZM55.7055 27.3212C51.1277 28.8613 49.4005 36.0206 51.8478 43.3119C54.2952 50.6032 59.9904 55.2654 64.5682 53.7253C69.1459 52.1851 70.8731 45.0258 68.4258 37.7345C65.9784 30.4432 60.287 25.7798 55.7055 27.3212Z" fill="black"/>
<path d="M36.2287 55.4934C38.6217 54.6884 39.513 50.9115 38.2194 47.0575C36.9258 43.2035 33.9373 40.7319 31.5443 41.5369C29.1513 42.342 28.2601 46.1189 29.5536 49.9729C30.8472 53.8269 33.8357 56.2985 36.2287 55.4934Z" fill="black"/>
<path d="M31.6078 41.7255C33.8948 40.9561 36.774 43.3752 38.0313 47.1208C39.2885 50.8664 38.4528 54.5353 36.1658 55.3047C33.8788 56.0742 30.9996 53.6551 29.7423 49.9094C28.4851 46.1638 29.3246 42.4936 31.6078 41.7255ZM31.4812 41.3483C28.9832 42.1887 28.0374 46.0794 29.3655 50.0362C30.6937 53.993 33.7944 56.5223 36.2924 55.6819C38.7904 54.8415 39.7362 50.9508 38.408 46.994C37.0799 43.0372 33.9792 40.5079 31.4812 41.3483Z" fill="black"/>
<path d="M62.2258 46.7469C64.6188 45.9418 65.51 42.1649 64.2165 38.3109C62.9229 34.457 59.9344 31.9853 57.5414 32.7904C55.1484 33.5954 54.2571 37.3723 55.5507 41.2263C56.8443 45.0803 59.8328 47.5519 62.2258 46.7469Z" fill="black"/>
<path d="M57.6049 32.9791C59.8919 32.2097 62.7711 34.6288 64.0284 38.3744C65.2856 42.12 64.4498 45.789 62.1628 46.5584C59.8758 47.3278 56.9966 44.9087 55.7394 41.1631C54.4822 37.4175 55.3217 33.7473 57.6049 32.9791ZM57.4783 32.6019C54.9803 33.4424 54.0345 37.333 55.3626 41.2899C56.6908 45.2467 59.7915 47.776 62.2895 46.9356C64.7874 46.0952 65.7333 42.2045 64.4051 38.2477C63.077 34.2908 59.9763 31.7615 57.4783 32.6019Z" fill="black"/>
<path d="M32.1597 49.5157C33.5996 49.0313 34.2567 47.1186 33.6274 45.2437C32.9981 43.3688 31.3206 42.2417 29.8807 42.7261C28.4407 43.2106 27.7836 45.1232 28.4129 46.9981C29.0422 48.873 30.7197 50.0002 32.1597 49.5157Z" fill="white"/>
<path d="M57.9033 40.0152C59.3433 39.5308 60.0004 37.6182 59.3711 35.7433C58.7418 33.8684 57.0643 32.7412 55.6243 33.2256C54.1844 33.7101 53.5273 35.6227 54.1566 37.4976C54.7859 39.3725 56.4634 40.4997 57.9033 40.0152Z" fill="white"/>
<path d="M22.9195 32.1049C23.5549 29.8132 24.6842 27.456 26.9832 26.4601C29.1253 25.5337 31.5261 26.1155 33.5846 26.9888C34.9938 27.5893 36.0633 25.4538 34.6452 24.852C31.9048 23.6834 28.761 23.0368 25.9335 24.3071C22.9566 25.6444 21.4165 28.6142 20.5842 31.6186C20.173 33.1045 22.5083 33.5782 22.9195 32.1049Z" fill="black"/>
<path d="M50.3461 20.5141C56.3244 21.1852 62.4813 20.3648 68.0501 18.0673C69.4615 17.4875 68.7119 15.2167 67.2905 15.8041C62.1222 17.9333 56.3965 18.8017 50.8319 18.1761C49.3144 18.0024 48.8198 20.3391 50.3461 20.5141Z" fill="black"/>
<path d="M58.9692 77.0189C39.513 83.5646 20.5674 79.4142 16.6514 67.7473" stroke="black" stroke-width="1.67916" stroke-miterlimit="10"/>
<path d="M87.1061 44.0437C91.0222 55.7106 78.4248 70.4731 58.9686 77.0189" stroke="black" stroke-width="1.67916" stroke-miterlimit="10"/>
<path d="M12.8236 70.0854L20.2262 64.6553" stroke="black" stroke-width="1.67916" stroke-miterlimit="10"/>
<path d="M83.9028 44.4922L90.1847 43.2187" stroke="black" stroke-width="1.67916" stroke-miterlimit="10"/>
</g>
<defs>
<clipPath id="clip0_118_1473">
<rect width="82.3787" height="71.2059" fill="white" transform="matrix(0.945087 -0.326819 0.310424 0.950598 0.166016 26.9294)"/>
</clipPath>
</defs>
</svg>
