<svg width="131" height="130" viewBox="0 0 131 130" fill="none" xmlns="http://www.w3.org/2000/svg">
<g clip-path="url(#clip0_118_1437)">
<path d="M47.951 64.005C52.4622 67.1749 60.3135 63.7617 65.4875 56.3813C70.6615 49.0009 71.1989 40.4483 66.6877 37.2784C62.1766 34.1085 54.3252 37.5218 49.1512 44.9021C43.9772 52.2825 43.4398 60.8352 47.951 64.005Z" fill="white"/>
<path d="M66.2682 37.8768C70.3722 40.7606 69.7417 49.0404 64.8897 55.9614C60.0377 62.8824 52.4743 66.2905 48.3703 63.4066C44.2663 60.5228 44.8967 52.243 49.7487 45.3221C54.6007 38.4011 62.1682 34.9958 66.2682 37.8768ZM67.1071 36.6801C62.266 33.2783 53.9591 36.7713 48.5534 44.4821C43.1477 52.1929 42.6902 61.2016 47.5313 64.6033C52.3724 68.0051 60.6793 64.5121 66.085 56.8013C71.4908 49.0905 71.9522 40.0847 67.1071 36.6801Z" fill="black"/>
<path d="M75.4437 83.3241C79.9548 86.494 87.8062 83.0808 92.9802 75.7004C98.1542 68.32 98.6916 59.7674 94.1804 56.5975C89.6692 53.4276 81.8178 56.8409 76.6438 64.2212C71.4698 71.6016 70.9325 80.1542 75.4437 83.3241Z" fill="white"/>
<path d="M93.7613 57.1957C97.8653 60.0795 97.2349 68.3593 92.3829 75.2802C87.5308 82.2012 79.9674 85.6093 75.8634 82.7255C71.7594 79.8417 72.3899 71.5619 77.2419 64.6409C82.0939 57.7199 89.6613 54.3147 93.7613 57.1957ZM94.6003 55.999C89.7592 52.5972 81.4523 56.0902 76.0466 63.801C70.6408 71.5118 70.1833 80.5204 75.0245 83.9222C79.8656 87.324 88.1725 83.831 93.5782 76.1202C98.9839 68.4094 99.4454 59.4035 94.6003 55.999Z" fill="black"/>
<path d="M57.0958 54.3547C59.6265 56.133 63.9943 54.2705 66.8516 50.1948C69.7089 46.119 69.9736 41.3735 67.443 39.5953C64.9123 37.817 60.5446 39.6795 57.6873 43.7552C54.83 47.8309 54.5652 52.5765 57.0958 54.3547Z" fill="black"/>
<path d="M67.3035 39.7946C69.722 41.4941 69.4295 46.0935 66.6526 50.0546C63.8756 54.0157 59.6544 55.8546 57.2359 54.1551C54.8173 52.4556 55.1098 47.8561 57.8868 43.895C60.6637 39.9339 64.8889 38.0979 67.3035 39.7946ZM67.5831 39.3957C64.9414 37.5394 60.4219 39.4306 57.4883 43.615C54.5547 47.7995 54.3145 52.6977 56.9562 54.554C59.5979 56.4103 64.1174 54.5191 67.051 50.3346C69.9846 46.1501 70.2248 41.252 67.5831 39.3957Z" fill="black"/>
<path d="M84.9865 73.9531C87.5171 75.7314 91.8849 73.8689 94.7422 69.7931C97.5995 65.7174 97.8643 60.9719 95.3336 59.1936C92.803 57.4154 88.4352 59.2779 85.5779 63.3536C82.7206 67.4293 82.4558 72.1749 84.9865 73.9531Z" fill="black"/>
<path d="M95.1936 59.3932C97.6122 61.0927 97.3197 65.6922 94.5427 69.6533C91.7657 73.6144 87.5446 75.4532 85.126 73.7537C82.7074 72.0542 82.9999 67.4548 85.7769 63.4937C88.5539 59.5326 92.779 57.6965 95.1936 59.3932ZM95.4732 58.9943C92.8316 57.138 88.312 59.0292 85.3784 63.2137C82.4449 67.3982 82.2047 72.2963 84.8463 74.1526C87.488 76.0089 92.0076 74.1177 94.9412 69.9333C97.8747 65.7488 98.1149 60.8506 95.4732 58.9943Z" fill="black"/>
<path d="M55.7382 52.5074C56.9221 53.3394 58.7583 52.7636 59.8395 51.2214C60.9206 49.6793 60.8373 47.7547 59.6534 46.9228C58.4695 46.0909 56.6333 46.6667 55.5522 48.2088C54.471 49.751 54.5543 51.6755 55.7382 52.5074Z" fill="white"/>
<path d="M83.748 72.785C84.9319 73.6169 86.7681 73.0412 87.8492 71.499C88.9304 69.9569 88.8471 68.0323 87.6632 67.2004C86.4793 66.3685 84.6431 66.9443 83.5619 68.4864C82.4808 70.0286 82.5641 71.9531 83.748 72.785Z" fill="white"/>
<path d="M62.6814 25.9425C68.2554 26.144 73.2155 28.8077 76.5055 33.3106C77.617 34.83 79.8658 32.9627 78.7622 31.449C75.0406 26.357 69.2253 23.259 62.9267 23.0307C61.0524 22.964 60.7936 25.8782 62.6814 25.9425Z" fill="black"/>
<path d="M95.0834 45.7401C100.339 47.6348 104.225 51.7113 105.991 56.9889C106.589 58.7731 109.239 57.5387 108.647 55.7709C106.64 49.7764 101.995 45.1192 96.065 42.9825C94.2976 42.3479 93.3079 45.0999 95.0834 45.7401Z" fill="black"/>
<path d="M48.3754 91.3947C27.7998 76.9365 18.132 55.216 26.7817 42.8779" stroke="black" stroke-width="1.67916" stroke-miterlimit="10"/>
<path d="M101.291 95.234C92.6408 107.572 68.951 105.853 48.3754 91.3946" stroke="black" stroke-width="1.67916" stroke-miterlimit="10"/>
<path d="M21.6996 40.7953L32.423 44.1625" stroke="black" stroke-width="1.67916" stroke-miterlimit="10"/>
<path d="M98.5225 92.396L104.338 97.6735" stroke="black" stroke-width="1.67916" stroke-miterlimit="10"/>
<path d="M58.3877 28.4871C57.9833 29.1317 57.0688 30.7755 57.0639 33.0645C57.0606 35.0627 57.7491 36.5408 58.1179 37.2109" stroke="black" stroke-width="1.11944" stroke-miterlimit="10"/>
<path d="M59.978 29.8838C59.7936 30.3675 59.3777 31.6054 59.3755 33.3306C59.3732 34.8354 59.6869 35.9489 59.8517 36.4518" stroke="black" stroke-width="1.11944" stroke-miterlimit="10"/>
<path d="M62.4521 31.8428C62.2551 32.1748 61.8104 33.0297 61.8088 34.2197C61.8083 35.2556 62.1423 36.0263 62.3217 36.3728" stroke="black" stroke-width="1.11944" stroke-miterlimit="10"/>
<path d="M105.648 61.1003C105.18 61.7002 103.946 63.12 101.798 63.9027C99.9218 64.585 98.2993 64.4393 97.5445 64.3197" stroke="black" stroke-width="1.11944" stroke-miterlimit="10"/>
<path d="M103.796 60.0782C103.404 60.4163 102.383 61.2287 100.763 61.8172C99.3499 62.3308 98.1973 62.414 97.6689 62.4297" stroke="black" stroke-width="1.11944" stroke-miterlimit="10"/>
<path d="M101.114 58.4146C100.869 58.7131 100.217 59.4223 99.0999 59.8283C98.127 60.181 97.2895 60.1284 96.903 60.0773" stroke="black" stroke-width="1.11944" stroke-miterlimit="10"/>
<path d="M49.0148 92.9886C50.7986 91.5584 50.3373 88.0146 47.9845 85.0731C45.6317 82.1317 42.2783 80.9066 40.4945 82.3367C38.7107 83.7669 39.172 87.3108 41.5248 90.2522C43.8776 93.1936 47.231 94.4187 49.0148 92.9886Z" fill="black" stroke="black" stroke-width="1.67916" stroke-miterlimit="10"/>
<path d="M47.075 94.9465C50.7058 97.4978 53.9623 99.1196 54.3484 98.5689C54.7345 98.0181 52.1041 95.5033 48.4732 92.9519C44.8423 90.4006 41.5859 88.7788 41.1998 89.3295C40.8137 89.8803 43.4441 92.3951 47.075 94.9465Z" fill="black" stroke="black" stroke-width="1.67916" stroke-miterlimit="10"/>
<path d="M53.0046 98.4244C56.4313 99.9829 59.9754 99.5578 60.9205 97.4749C61.8657 95.392 59.854 92.44 56.4273 90.8815C53.0006 89.323 49.4565 89.7481 48.5113 91.831C47.5662 93.9139 49.5779 96.8659 53.0046 98.4244Z" fill="black" stroke="black" stroke-width="1.67916" stroke-miterlimit="10"/>
</g>
<defs>
<clipPath id="clip0_118_1437">
<rect width="105.182" height="80.5697" fill="white" transform="matrix(0.810663 0.585513 -0.563471 0.826136 45.4644 0.912842)"/>
</clipPath>
</defs>
</svg>
