<svg width="127" height="122" viewBox="0 0 127 122" fill="none" xmlns="http://www.w3.org/2000/svg">
<g clip-path="url(#clip0_118_1409)">
<path d="M45.9441 62.7188C50.5201 65.3638 57.7294 61.4391 62.0466 53.9527C66.3638 46.4663 66.154 38.2532 61.578 35.6082C57.0021 32.9633 49.7927 36.888 45.4755 44.3744C41.1583 51.8608 41.3681 60.0739 45.9441 62.7188Z" fill="white"/>
<path d="M61.2279 36.215C65.3909 38.6213 65.4888 46.5816 61.4403 53.6021C57.3918 60.6225 50.4571 64.518 46.2941 62.1118C42.1311 59.7055 42.0332 51.7451 46.0817 44.7247C50.1302 37.7043 57.069 33.8111 61.2279 36.215ZM61.928 35.0011C57.0172 32.1627 49.3797 36.2022 44.8692 44.0238C40.3587 51.8455 40.6833 60.4872 45.594 63.3257C50.5047 66.1641 58.1423 62.1246 62.6528 54.3029C67.1633 46.4813 66.8427 37.8419 61.928 35.0011Z" fill="black"/>
<path d="M73.8308 78.8382C78.4068 81.4832 85.6161 77.5585 89.9333 70.0721C94.2506 62.5857 94.0408 54.3726 89.4648 51.7276C84.8888 49.0826 77.6794 53.0074 73.3622 60.4938C69.045 67.9802 69.2548 76.1933 73.8308 78.8382Z" fill="white"/>
<path d="M89.1152 52.3347C93.2781 54.7409 93.376 62.7013 89.3275 69.7217C85.279 76.7422 78.3443 80.6376 74.1813 78.2314C70.0183 75.8251 69.9204 67.8648 73.9689 60.8443C78.0174 53.8239 84.9562 49.9307 89.1152 52.3347ZM89.8152 51.1207C84.9045 48.2823 77.2669 52.3219 72.7564 60.1435C68.2459 67.9651 68.5705 76.6069 73.4812 79.4453C78.392 82.2837 86.0295 78.2442 90.54 70.4226C95.0505 62.6009 94.7299 53.9615 89.8152 51.1207Z" fill="black"/>
<path d="M49.9108 55.84C52.4779 57.3238 56.4915 55.1751 58.8757 51.0408C61.2598 46.9065 61.1115 42.3522 58.5445 40.8685C55.9775 39.3847 51.9638 41.5334 49.5797 45.6677C47.1955 49.8019 47.3438 54.3563 49.9108 55.84Z" fill="black"/>
<path d="M58.4282 41.0706C60.8816 42.4887 60.991 46.9058 58.6739 50.9238C56.3568 54.9419 52.4811 57.0555 50.0278 55.6375C47.5745 54.2194 47.465 49.8022 49.7821 45.7842C52.0993 41.7662 55.979 39.6549 58.4282 41.0706ZM58.6616 40.666C55.9819 39.1171 51.8258 41.306 49.378 45.5506C46.9302 49.7952 47.1148 54.4932 49.7945 56.0421C52.4741 57.591 56.6303 55.4021 59.0781 51.1575C61.5259 46.9128 61.3413 42.2149 58.6616 40.666Z" fill="black"/>
<path d="M77.7985 71.9594C80.3656 73.4432 84.3792 71.2945 86.7634 67.1602C89.1475 63.0259 88.9992 58.4716 86.4322 56.9878C83.8652 55.5041 79.8515 57.6528 77.4674 61.787C75.0832 65.9213 75.2315 70.4756 77.7985 71.9594Z" fill="black"/>
<path d="M86.3155 57.1902C88.7688 58.6083 88.8783 63.0255 86.5611 67.0435C84.244 71.0615 80.3683 73.1752 77.915 71.7571C75.4617 70.339 75.3522 65.9219 77.6693 61.9039C79.9865 57.8858 83.8662 55.7745 86.3155 57.1902ZM86.5488 56.7856C83.8691 55.2367 79.713 57.4256 77.2652 61.6702C74.8174 65.9148 75.002 70.6128 77.6817 72.1617C80.3613 73.7106 84.5175 71.5217 86.9653 67.2771C89.4131 63.0325 89.2285 58.3345 86.5488 56.7856Z" fill="black"/>
<path d="M55.4101 50.1164C56.9548 51.0092 59.1472 50.1026 60.3071 48.0913C61.467 46.08 61.155 43.7258 59.6103 42.833C58.0657 41.9401 55.8732 42.8468 54.7134 44.858C53.5535 46.8693 53.8655 49.2235 55.4101 50.1164Z" fill="white"/>
<path d="M83.2973 66.2357C84.842 67.1286 87.0345 66.2219 88.1943 64.2107C89.3542 62.1994 89.0422 59.8452 87.4976 58.9523C85.9529 58.0595 83.7604 58.9661 82.6006 60.9774C81.4407 62.9887 81.7527 65.3429 83.2973 66.2357Z" fill="white"/>
<path d="M57.705 25.0551C62.8494 25.4229 67.525 28.1363 70.4242 32.407C71.4329 33.8911 73.872 32.5117 72.8575 31.0189C69.3591 25.8623 63.9058 22.694 57.689 22.2513C55.8946 22.1204 55.9145 24.9266 57.705 25.0551Z" fill="black"/>
<path d="M86.8051 41.8754C91.9495 42.2432 96.6251 44.9566 99.5242 49.2273C100.533 50.7114 102.972 49.332 101.958 47.8392C98.4592 42.6826 93.0059 39.5143 86.7891 39.0716C84.9947 38.9407 85.0146 41.7469 86.8051 41.8754Z" fill="black"/>
<path d="M49.7057 88.9015C28.8345 76.8375 17.766 56.9141 24.9834 44.3987" stroke="black" stroke-width="1.67916" stroke-miterlimit="10"/>
<path d="M100.564 88.0851C93.3462 100.601 70.5778 100.966 49.7065 88.9016" stroke="black" stroke-width="1.67916" stroke-miterlimit="10"/>
<path d="M19.954 42.8405L30.4791 45.1476" stroke="black" stroke-width="1.67916" stroke-miterlimit="10"/>
<path d="M97.6797 85.6091L103.68 90.1569" stroke="black" stroke-width="1.67916" stroke-miterlimit="10"/>
</g>
<defs>
<clipPath id="clip0_118_1409">
<rect width="102.174" height="78.8557" fill="white" transform="matrix(0.859713 0.510777 -0.4893 0.872115 39.1304 0.54541)"/>
</clipPath>
</defs>
</svg>
