<svg width="81" height="78" viewBox="0 0 81 78" fill="none" xmlns="http://www.w3.org/2000/svg">
<g clip-path="url(#clip0_123_261)">
<path d="M29.0773 40.0075C31.9589 41.6963 36.4981 39.1904 39.2157 34.4105C41.9334 29.6305 41.8005 24.3866 38.9188 22.6979C36.0372 21.0091 31.4981 23.515 28.7804 28.2949C26.0627 33.0749 26.1956 38.3188 29.0773 40.0075Z" fill="#FCFCFC"/>
<path d="M38.6989 23.0845C41.3205 24.6208 41.383 29.7033 38.8345 34.1858C36.2861 38.6682 31.9199 41.1555 29.2983 39.6192C26.6767 38.083 26.6142 33.0004 29.1627 28.518C31.7111 24.0355 36.0798 21.5497 38.6989 23.0845ZM39.1395 22.3094C36.0471 20.4972 31.2384 23.0765 28.3991 28.0705C25.5598 33.0645 25.7652 38.5821 28.8577 40.3943C31.9501 42.2065 36.7588 39.6272 39.5981 34.6332C42.4374 29.6392 42.2345 24.1231 39.1395 22.3094Z" fill="#131313"/>
<path d="M46.6329 50.2993C49.5146 51.988 54.0537 49.4821 56.7714 44.7022C59.4891 39.9223 59.3561 34.6784 56.4745 32.9896C53.5929 31.3009 49.0537 33.8068 46.3361 38.5867C43.6184 43.3666 43.7513 48.6105 46.6329 50.2993Z" fill="#FCFCFC"/>
<path d="M56.2536 33.3767C58.8752 34.913 58.9376 39.9956 56.3892 44.478C53.8408 48.9605 49.4746 51.4477 46.853 49.9115C44.2314 48.3752 44.1689 43.2927 46.7174 38.8102C49.2658 34.3277 53.6345 31.842 56.2536 33.3767ZM56.6942 32.6017C53.6018 30.7895 48.7931 33.3687 45.9538 38.3627C43.1145 43.3567 43.3199 48.8743 46.4124 50.6865C49.5048 52.4987 54.3135 49.9195 57.1528 44.9255C59.992 39.9315 59.7892 34.4154 56.6942 32.6017Z" fill="#131313"/>
<path d="M31.5703 35.615C33.1868 36.5623 35.7139 35.1904 37.2147 32.5507C38.7155 29.911 38.6217 27.0032 37.0051 26.0559C35.3886 25.1085 32.8615 26.4804 31.3607 29.1201C29.8599 31.7598 29.9538 34.6676 31.5703 35.615Z" fill="#131313"/>
<path d="M36.9327 26.185C38.4776 27.0904 38.547 29.9106 37.0884 32.4761C35.6298 35.0415 33.1896 36.391 31.6447 35.4856C30.0997 34.5802 30.0304 31.76 31.489 29.1945C32.9476 26.6291 35.3903 25.2811 36.9327 26.185ZM37.0796 25.9266C35.3922 24.9377 32.7754 26.3353 31.2345 29.0454C29.6936 31.7555 29.8103 34.755 31.4978 35.744C33.1852 36.7329 35.802 35.3353 37.3429 32.6252C38.8838 29.9151 38.7671 26.9156 37.0796 25.9266Z" fill="#131313"/>
<path d="M49.1318 45.9077C50.7484 46.855 53.2754 45.4831 54.7762 42.8434C56.277 40.2038 56.1832 37.2959 54.5666 36.3486C52.9501 35.4013 50.423 36.7732 48.9222 39.4128C47.4215 42.0525 47.5153 44.9603 49.1318 45.9077Z" fill="#131313"/>
<path d="M54.4933 36.478C56.0382 37.3834 56.1076 40.2036 54.6489 42.769C53.1903 45.3345 50.7501 46.684 49.2052 45.7786C47.6603 44.8732 47.5909 42.0529 49.0495 39.4875C50.5082 36.9221 52.9509 35.574 54.4933 36.478ZM54.6402 36.2196C52.9527 35.2307 50.3359 36.6283 48.795 39.3384C47.2541 42.0485 47.3709 45.048 49.0583 46.0369C50.7458 47.0259 53.3626 45.6283 54.9034 42.9182C56.4443 40.2081 56.3276 37.2085 54.6402 36.2196Z" fill="#131313"/>
<path d="M35.0323 31.9607C36.005 32.5308 37.3854 31.9519 38.1155 30.6678C38.8456 29.3836 38.649 27.8805 37.6763 27.3105C36.7036 26.7404 35.3232 27.3193 34.593 28.6035C33.8629 29.8876 34.0596 31.3907 35.0323 31.9607Z" fill="#FCFCFC"/>
<path d="M52.5909 42.2527C53.5636 42.8228 54.944 42.2439 55.6741 40.9598C56.4042 39.6756 56.2076 38.1725 55.2349 37.6025C54.2622 37.0324 52.8818 37.6113 52.1516 38.8954C51.4215 40.1796 51.6182 41.6827 52.5909 42.2527Z" fill="#FCFCFC"/>
<path d="M36.4772 15.9598C39.7159 16.195 42.6601 17.927 44.4864 20.6528C45.1218 21.6 46.6569 20.7199 46.0179 19.7671C43.8141 16.476 40.3802 14.4535 36.4663 14.1704C35.3366 14.0867 35.35 15.8776 36.4772 15.9598Z" fill="#131313"/>
<path d="M54.7984 26.6995C58.0372 26.9347 60.9814 28.6668 62.8077 31.3925C63.4431 32.3397 64.9782 31.4596 64.3392 30.5069C62.1354 27.2157 58.7014 25.1933 54.7876 24.9102C53.6579 24.8265 53.6713 26.6173 54.7984 26.6995Z" fill="#131313"/>
<path d="M31.4416 56.7246C18.3007 49.022 11.3318 36.3012 15.876 28.3103" stroke="#131313" stroke-width="1.61043" stroke-miterlimit="10"/>
<path d="M63.464 56.2031C58.9198 64.194 44.5843 64.427 31.4434 56.7244" stroke="#131313" stroke-width="1.61043" stroke-miterlimit="10"/>
<path d="M12.7108 27.3151L19.3376 28.7881" stroke="#131313" stroke-width="1.61043" stroke-miterlimit="10"/>
<path d="M61.6475 54.6223L65.4252 57.5256" stroke="#131313" stroke-width="1.61043" stroke-miterlimit="10"/>
</g>
<defs>
<clipPath id="clip0_123_261">
<rect width="64.5681" height="50.1816" fill="white" transform="matrix(0.85655 0.516064 -0.484106 0.875009 24.7842 0.311035)"/>
</clipPath>
</defs>
</svg>
