<svg width="64" height="62" viewBox="0 0 64 62" fill="none" xmlns="http://www.w3.org/2000/svg">
<g clip-path="url(#clip0_123_325)">
<path d="M24.3525 40.1812C27.0387 39.265 28.0212 34.9102 26.5468 30.4544C25.0725 25.9987 21.6996 23.1293 19.0133 24.0455C16.3271 24.9616 15.3446 29.3164 16.819 33.7722C18.2933 38.2279 21.6662 41.0973 24.3525 40.1812Z" fill="#FCFCFC"/>
<path d="M19.1316 24.4065C21.5753 23.5728 24.8072 26.3966 26.1902 30.5749C27.5732 34.7532 26.6768 38.9855 24.2331 39.8192C21.7894 40.6529 18.5575 37.8291 17.1745 33.6508C15.7915 29.4725 16.6902 25.2394 19.1316 24.4065ZM18.8925 23.6841C16.0098 24.6675 14.9219 29.2385 16.4627 33.8936C18.0036 38.5487 21.5896 41.5251 24.4722 40.5417C27.3549 39.5582 28.4428 34.9872 26.902 30.3321C25.3612 25.677 21.7775 22.6998 18.8925 23.6841Z" fill="#131313"/>
<path d="M40.7206 34.5972C43.4069 33.681 44.3893 29.3262 42.915 24.8704C41.4406 20.4147 38.0678 17.5453 35.3815 18.4615C32.6952 19.3777 31.7128 23.7325 33.1871 28.1882C34.6615 32.644 38.0343 35.5133 40.7206 34.5972Z" fill="#FCFCFC"/>
<path d="M35.4998 18.8221C37.9435 17.9883 41.1754 20.8122 42.5584 24.9904C43.9414 29.1687 43.045 33.401 40.6013 34.2347C38.1575 35.0684 34.9257 32.2446 33.5427 28.0663C32.1597 23.8881 33.0584 19.655 35.4998 18.8221ZM35.2606 18.0996C32.378 19.0831 31.2901 23.6541 32.8309 28.3092C34.3717 32.9643 37.9578 35.9407 40.8404 34.9572C43.7231 33.9737 44.811 29.4027 43.2701 24.7476C41.7293 20.0925 38.1457 17.1153 35.2606 18.0996Z" fill="#131313"/>
<path d="M22.9942 36.0877C24.5011 35.5738 25.0628 33.1624 24.2486 30.7018C23.4345 28.2411 21.5529 26.663 20.0459 27.1769C18.539 27.6908 17.9774 30.1022 18.7915 32.5628C19.6057 35.0235 21.4873 36.6016 22.9942 36.0877Z" fill="#131313"/>
<path d="M20.085 27.2966C21.5251 26.8053 23.338 28.3496 24.1296 30.741C24.9211 33.1324 24.3947 35.4749 22.9546 35.9662C21.5144 36.4575 19.7015 34.9132 18.91 32.5218C18.1184 30.1304 18.6472 27.7871 20.085 27.2966ZM20.0053 27.0558C18.4323 27.5924 17.8365 30.0765 18.6727 32.6027C19.5089 35.129 21.4613 36.7437 23.0343 36.207C24.6073 35.6704 25.203 33.1863 24.3668 30.6601C23.5307 28.1338 21.5783 26.5191 20.0053 27.0558Z" fill="#131313"/>
<path d="M39.3673 30.503C40.8742 29.9891 41.4358 27.5777 40.6217 25.1171C39.8075 22.6564 37.9259 21.0783 36.419 21.5922C34.912 22.1061 34.3504 24.5175 35.1646 26.9781C35.9787 29.4388 37.8603 31.0169 39.3673 30.503Z" fill="#131313"/>
<path d="M36.458 21.7119C37.8982 21.2205 39.7111 22.7649 40.5026 25.1563C41.2942 27.5477 40.7678 29.8902 39.3276 30.3815C37.8875 30.8728 36.0745 29.3284 35.283 26.9371C34.4915 24.5457 35.0203 22.2024 36.458 21.7119ZM36.3783 21.471C34.8053 22.0077 34.2096 24.4918 35.0458 27.018C35.8819 29.5442 37.8343 31.159 39.4073 30.6223C40.9803 30.0856 41.5761 27.6016 40.7399 25.0753C39.9037 22.5491 37.9513 20.9344 36.3783 21.471Z" fill="#131313"/>
<path d="M20.4359 32.2705C21.3426 31.9611 21.7565 30.74 21.3603 29.543C20.9641 28.346 19.9079 27.6264 19.0011 27.9357C18.0944 28.2451 17.6806 29.4662 18.0768 30.6632C18.473 31.8602 19.5292 32.5798 20.4359 32.2705Z" fill="#FCFCFC"/>
<path d="M36.64 26.2043C37.5467 25.895 37.9606 24.6738 37.5644 23.4768C37.1682 22.2798 36.112 21.5602 35.2052 21.8696C34.2985 22.1789 33.8847 23.4001 34.2809 24.5971C34.6771 25.7941 35.7333 26.5137 36.64 26.2043Z" fill="#FCFCFC"/>
<path d="M14.6142 21.153C15.0144 19.69 15.7255 18.1853 17.1731 17.5494C18.5218 16.9579 20.0334 17.3292 21.3295 17.8866C22.2167 18.2699 22.8902 16.9066 21.9974 16.5225C20.272 15.7766 18.2926 15.364 16.5123 16.175C14.6379 17.0289 13.6681 18.9247 13.1439 20.8427C12.8849 21.7913 14.3552 22.0935 14.6142 21.153Z" fill="#131313"/>
<path d="M31.8834 13.7537C35.6473 14.1817 39.5239 13.6576 43.0302 12.1907C43.9189 11.8206 43.4471 10.3712 42.5521 10.7462C39.2979 12.1056 35.6929 12.6603 32.1894 12.2613C31.234 12.1506 30.9224 13.6421 31.8834 13.7537Z" fill="#131313"/>
<path d="M37.314 49.8306C25.064 54.01 13.1355 51.36 10.6699 43.9109" stroke="#131313" stroke-width="1.61043" stroke-miterlimit="10"/>
<path d="M55.0286 28.7771C57.4942 36.2262 49.5627 45.6518 37.3127 49.8312" stroke="#131313" stroke-width="1.61043" stroke-miterlimit="10"/>
<path d="M8.25821 45.4039L12.919 41.9375" stroke="#131313" stroke-width="1.61043" stroke-miterlimit="10"/>
<path d="M53.0107 29.063L56.9676 28.2508" stroke="#131313" stroke-width="1.61043" stroke-miterlimit="10"/>
</g>
<defs>
<clipPath id="clip0_123_325">
<rect width="51.9456" height="45.4033" fill="white" transform="matrix(0.943659 -0.33092 0.306521 0.951864 0.291016 17.8499)"/>
</clipPath>
</defs>
</svg>
