<svg width="229" height="207" viewBox="0 0 229 207" fill="none" xmlns="http://www.w3.org/2000/svg">
<g clip-path="url(#clip0_105_11168)">
<path d="M79.9067 113.296C88.1015 117.796 101.025 111.118 108.772 98.3803C116.519 85.6423 116.156 71.6677 107.961 67.1672C99.7663 62.6667 86.8428 69.3445 79.0958 82.0825C71.3488 94.8205 71.7118 108.795 79.9067 113.296Z" fill="white"/>
<path d="M107.333 68.1999C114.788 72.2943 114.951 85.8391 107.686 97.7843C100.421 109.73 87.9898 116.358 80.5344 112.263C73.0791 108.169 72.9162 94.6241 80.1811 82.6788C87.446 70.7335 99.8848 64.1095 107.333 68.1999ZM108.589 66.1345C99.7947 61.3047 86.1036 68.1778 78.0096 81.4863C69.9156 94.7947 70.4838 109.499 79.2783 114.329C88.0727 119.158 101.764 112.285 109.858 98.9769C117.952 85.6684 117.391 70.9682 108.589 66.1345Z" fill="black"/>
<path d="M129.897 140.723C138.092 145.223 151.016 138.545 158.763 125.807C166.51 113.069 166.147 99.0947 157.952 94.5942C149.757 90.0937 136.834 96.7715 129.087 109.51C121.339 122.248 121.703 136.222 129.897 140.723Z" fill="white"/>
<path d="M157.324 95.6269C164.779 99.7213 164.942 113.266 157.677 125.211C150.412 137.157 137.981 143.785 130.525 139.69C123.07 135.596 122.907 122.051 130.172 110.106C137.437 98.1605 149.876 91.5365 157.324 95.6269ZM158.58 93.5615C149.785 88.7317 136.094 95.6048 128 108.913C119.906 122.222 120.475 136.926 129.269 141.756C138.063 146.585 151.755 139.712 159.849 126.404C167.943 113.095 167.382 98.3952 158.58 93.5615Z" fill="black"/>
<path d="M87.0244 101.591C91.6216 104.116 98.8165 100.46 103.095 93.4256C107.373 86.3912 107.114 78.642 102.517 76.1173C97.9201 73.5926 90.7252 77.2484 86.4469 84.2829C82.1687 91.3174 82.4273 99.0666 87.0244 101.591Z" fill="black"/>
<path d="M102.307 76.4618C106.701 78.8747 106.89 86.3906 102.732 93.2273C98.5744 100.064 91.6268 103.66 87.2332 101.248C82.8396 98.8346 82.6502 91.3188 86.8081 84.482C90.966 77.6453 97.9209 74.0529 102.307 76.4618ZM102.726 75.7733C97.927 73.1378 90.4767 76.8622 86.0843 84.0845C81.6919 91.3068 82.0155 99.3005 86.8145 101.936C91.6135 104.572 99.0638 100.847 103.456 93.6248C107.849 86.4025 107.525 78.4088 102.726 75.7733Z" fill="black"/>
<path d="M137.016 129.018C141.613 131.543 148.808 127.887 153.086 120.852C157.364 113.818 157.106 106.069 152.508 103.544C147.911 101.019 140.716 104.675 136.438 111.71C132.16 118.744 132.418 126.493 137.016 129.018Z" fill="black"/>
<path d="M152.298 103.889C156.692 106.301 156.881 113.817 152.724 120.654C148.566 127.491 141.618 131.087 137.224 128.674C132.831 126.261 132.641 118.746 136.799 111.909C140.957 105.072 147.912 101.48 152.298 103.889ZM152.717 103.2C147.918 100.565 140.468 104.289 136.076 111.511C131.683 118.734 132.007 126.727 136.806 129.363C141.605 131.998 149.055 128.274 153.447 121.052C157.84 113.829 157.516 105.836 152.717 103.2Z" fill="black"/>
<path d="M96.8861 91.8539C99.6527 93.3733 103.583 91.8307 105.664 88.4083C107.746 84.9859 107.19 80.9797 104.424 79.4603C101.657 77.9409 97.7267 79.4836 95.6453 82.906C93.5639 86.3284 94.1194 90.3345 96.8861 91.8539Z" fill="white"/>
<path d="M146.877 119.281C149.643 120.8 153.574 119.257 155.655 115.835C157.736 112.413 157.181 108.407 154.414 106.887C151.648 105.368 147.717 106.91 145.636 110.333C143.555 113.755 144.11 117.761 146.877 119.281Z" fill="white"/>
<path d="M101.002 49.2141C110.229 49.8351 118.605 54.4573 123.787 61.738C125.59 64.268 129.972 61.9123 128.158 59.3674C121.904 50.5764 112.135 45.1792 100.985 44.4318C97.7669 44.2108 97.7908 48.9971 101.002 49.2141Z" fill="black"/>
<path d="M153.167 77.8335C162.393 78.4545 170.769 83.0767 175.952 90.3574C177.755 92.8874 182.136 90.5316 180.323 87.9868C174.069 79.1958 164.3 73.7986 153.15 73.0512C149.931 72.8302 149.955 77.6165 153.167 77.8335Z" fill="black"/>
<path d="M86.6647 157.845C49.2511 137.318 29.4098 103.419 42.3477 82.1248" stroke="black" stroke-width="3" stroke-miterlimit="10"/>
<path d="M177.831 156.455C164.893 177.75 124.078 178.371 86.6648 157.845" stroke="black" stroke-width="3" stroke-miterlimit="10"/>
<path d="M33.3322 79.4736L52.1995 83.3991" stroke="black" stroke-width="3" stroke-miterlimit="10"/>
<path d="M172.662 152.243L183.418 159.98" stroke="black" stroke-width="3" stroke-miterlimit="10"/>
</g>
<defs>
<clipPath id="clip0_105_11168">
<rect width="185.152" height="132.458" fill="white" transform="matrix(0.868152 0.496299 -0.50371 0.863873 67.708 0.0622559)"/>
</clipPath>
</defs>
</svg>
