<svg aria-hidden="true" style="position: absolute; width: 0; height: 0; overflow: hidden;" version="1.1" xmlns="http://www.w3.org/2000/svg" xmlns:xlink="http://www.w3.org/1999/xlink">
<defs>

<symbol id="arrow-default" viewBox="0 0 82 32">
<path d="M81.414 17.414c0.781-0.781 0.781-2.047 0-2.828l-12.728-12.728c-0.781-0.781-2.047-0.781-2.828 0s-0.781 2.047 0 2.828l11.314 11.314-11.314 11.314c-0.781 0.781-0.781 2.047 0 2.828s2.047 0.781 2.828 0l12.728-12.728zM0 18h80v-4h-80v4z"></path>
</symbol>

<symbol id="arrow-focus" viewBox="0 0 69 32">
<path d="M68.081 17.414c0.781-0.781 0.781-2.047 0-2.829l-12.728-12.728c-0.781-0.781-2.047-0.781-2.828 0s-0.781 2.047 0 2.828l11.314 11.314-11.314 11.314c-0.781 0.781-0.781 2.047 0 2.828s2.047 0.781 2.828 0l12.728-12.728zM0 18h66.667v-4h-66.667v4z"></path>
</symbol>

<symbol id="arrow-hover" viewBox="0 0 102 32">
<path d="M101.414 17.414c0.781-0.781 0.781-2.047 0-2.828l-12.728-12.728c-0.781-0.781-2.047-0.781-2.828 0s-0.781 2.047 0 2.828l11.314 11.314-11.314 11.314c-0.781 0.781-0.781 2.047 0 2.828s2.047 0.781 2.828 0l12.728-12.728zM0 18h100v-4h-100v4z"></path>
</symbol>

<symbol id="menu_close" viewBox="0 0 32 32">
<path  d="M23.884 6.706l-7.884 7.884-7.884-7.884c-0.19-0.174-0.439-0.267-0.696-0.261s-0.502 0.11-0.684 0.292c-0.182 0.182-0.286 0.427-0.292 0.684s0.088 0.506 0.261 0.696l7.88 7.884-7.882 7.882c-0.096 0.092-0.173 0.202-0.226 0.324s-0.081 0.253-0.083 0.386 0.023 0.265 0.073 0.388c0.050 0.123 0.124 0.235 0.218 0.329s0.206 0.169 0.329 0.219 0.255 0.075 0.388 0.074c0.133-0.002 0.264-0.029 0.386-0.082s0.232-0.13 0.324-0.226l7.886-7.882 7.884 7.884c0.19 0.174 0.439 0.267 0.696 0.262s0.502-0.11 0.684-0.292c0.182-0.182 0.286-0.427 0.292-0.684s-0.088-0.506-0.262-0.696l-7.884-7.884 7.884-7.886c0.096-0.092 0.173-0.202 0.226-0.324s0.081-0.253 0.083-0.386c0.002-0.133-0.023-0.265-0.073-0.388s-0.124-0.235-0.218-0.329c-0.094-0.094-0.206-0.169-0.329-0.219s-0.255-0.075-0.388-0.074-0.264 0.029-0.386 0.082c-0.122 0.053-0.232 0.13-0.324 0.226v0.002z"></path>
</symbol>

<symbol id="menu_open" viewBox="0 0 32 32">
<path  stroke-linejoin="miter" stroke-linecap="round" stroke-miterlimit="4" stroke-width="2" d="M6 10h20"></path>
<path  stroke-linejoin="miter" stroke-linecap="round" stroke-miterlimit="4" stroke-width="2" d="M6 16h20"></path>
<path  stroke-linejoin="miter" stroke-linecap="round" stroke-miterlimit="4" stroke-width="2" d="M6 22h20"></path>
</symbol>

<symbol id="modal_close" viewBox="0 0 30 32">
<path d="M16.239 15.371l6.935-7.007c0.137-0.162 0.209-0.37 0.201-0.582s-0.095-0.415-0.245-0.565c-0.149-0.151-0.349-0.239-0.559-0.247s-0.416 0.064-0.577 0.203l-6.935 7.007-6.935-7.016c-0.158-0.159-0.371-0.249-0.594-0.249s-0.436 0.089-0.594 0.249c-0.158 0.159-0.246 0.375-0.246 0.6s0.088 0.441 0.246 0.6l6.944 7.007-6.944 7.007c-0.088 0.076-0.159 0.169-0.209 0.274s-0.078 0.219-0.083 0.336c-0.004 0.116 0.015 0.232 0.057 0.341s0.106 0.207 0.187 0.289c0.082 0.082 0.179 0.147 0.286 0.189s0.222 0.062 0.337 0.058c0.115-0.005 0.228-0.033 0.332-0.084s0.196-0.123 0.271-0.211l6.944-7.007 6.935 7.007c0.16 0.138 0.366 0.211 0.577 0.203s0.41-0.096 0.559-0.247c0.149-0.15 0.236-0.352 0.245-0.565s-0.064-0.421-0.201-0.582l-6.935-7.007z"></path>
</symbol>

<symbol id="socials_facebook" viewBox="0 0 32 32">
<path  d="M16 32c8.837 0 16-7.163 16-16s-7.163-16-16-16c-8.837 0-16 7.163-16 16s7.163 16 16 16z"></path>
<path  d="M20.446 15.982h-2.61v9.618h-3.955v-9.618h-1.881v-3.38h1.881v-2.187c0-1.564 0.739-4.014 3.99-4.014l2.929 0.012v3.281h-2.125c-0.349 0-0.839 0.175-0.839 0.921v1.989h2.955l-0.346 3.377z"></path>
</symbol>

<symbol id="socials_github" viewBox="0 0 32 32">
<path  d="M32 16c0 8.837-7.163 16-16 16s-16-7.163-16-16c0-8.837 7.163-16 16-16s16 7.163 16 16z"></path>
<path  d="M16 6.588c-5.169 0-9.412 4.242-9.412 9.412 0 4.411 3.095 8.419 7.206 9.412v-3.114c-0.407 0.089-0.782 0.092-1.197-0.030-0.556-0.164-1.008-0.535-1.344-1.1-0.214-0.361-0.593-0.752-0.988-0.723l-0.097-1.099c0.855-0.073 1.595 0.521 2.034 1.259 0.195 0.328 0.419 0.52 0.708 0.605 0.278 0.082 0.578 0.043 0.926-0.080 0.088-0.698 0.407-0.959 0.648-1.326v-0.001c-2.451-0.366-3.428-1.666-3.816-2.693-0.514-1.363-0.238-3.066 0.671-4.142 0.018-0.021 0.050-0.076 0.037-0.114-0.417-1.258 0.091-2.299 0.11-2.41 0.481 0.142 0.559-0.143 2.089 0.786l0.264 0.159c0.111 0.066 0.076 0.028 0.186 0.020 0.639-0.173 1.312-0.269 1.975-0.278 0.668 0.009 1.337 0.104 2.002 0.285l0.086 0.009c-0.007-0.001 0.023-0.005 0.075-0.036 1.911-1.157 1.842-0.779 2.355-0.946 0.019 0.111 0.519 1.169 0.107 2.411-0.056 0.171 1.657 1.739 0.708 4.256-0.388 1.027-1.365 2.328-3.816 2.693v0.001c0.314 0.479 0.692 0.734 0.69 1.722v3.887c4.111-0.993 7.206-5 7.206-9.412 0-5.169-4.242-9.412-9.412-9.412v0z"></path>
</symbol>

<symbol id="socials_telegram" viewBox="0 0 32 32">
<path  d="M32 16c0 8.837-7.163 16-16 16s-16-7.163-16-16c0-8.837 7.163-16 16-16s16 7.163 16 16z"></path>
<path  d="M12.869 18.375l-0.318 4.169c0.454 0 0.651-0.182 0.887-0.401l2.13-1.9 4.415 3.017c0.81 0.421 1.38 0.199 1.598-0.695l2.898-12.672 0.001-0.001c0.257-1.117-0.433-1.554-1.222-1.28l-17.032 6.086c-1.162 0.421-1.145 1.026-0.198 1.3l4.354 1.264 10.115-5.907c0.476-0.294 0.909-0.131 0.553 0.163l-8.182 6.857z"></path>
</symbol>
<svg aria-hidden="true" style="position:absolute;width:0;height:0;overflow:hidden" xmlns="http://www.w3.org/2000/svg">
  <defs>
    <symbol id="icon-header-arrow" viewBox="0 0 32 32">
      <path stroke-linejoin="round" stroke-linecap="round" stroke-width="5.333" d="M10.667 5.333 23.867 16l-13.2 10.667"/>
    </symbol>
  </defs>
</svg>
<symbol id="icon-open" viewBox="0 0 50 32">
<path d="M0 2.286c0-1.262 1.023-2.286 2.286-2.286h45.714c1.262 0 2.286 1.023 2.286 2.286s-1.023 2.286-2.286 2.286h-45.714c-1.262 0-2.286-1.023-2.286-2.286zM0 16c0-1.262 1.023-2.286 2.286-2.286h45.714c1.262 0 2.286 1.023 2.286 2.286s-1.023 2.286-2.286 2.286h-45.714c-1.262 0-2.286-1.023-2.286-2.286zM0 29.714c0-1.262 1.023-2.286 2.286-2.286h45.714c1.262 0 2.286 1.023 2.286 2.286s-1.023 2.286-2.286 2.286h-45.714c-1.262 0-2.286-1.023-2.286-2.286z"></path>
</symbol>

<symbol id="facebook" viewBox="0 0 31 32">
<path fill="#f8d24e" style="fill: var(--color1, #f8d24e)" d="M15.515 31.949c8.569 0 15.515-6.948 15.515-15.519s-6.946-15.518-15.515-15.518-15.515 6.947-15.515 15.518c0 8.571 6.946 15.519 15.515 15.519z"></path>
<path d="M19.826 16.412h-2.531v9.329h-3.836v-9.328h-1.823v-3.28h1.823v-2.122c0-1.517 0.718-3.892 3.869-3.892l2.841 0.012v3.183h-2.061c-0.339 0-0.815 0.17-0.815 0.894v1.93h2.866l-0.335 3.276z"></path>
</symbol>
<symbol id="github" viewBox="0 0 31 32">
<path fill="#f8d24e" style="fill: var(--color1, #f8d24e)" d="M31.030 16.43c0 8.571-6.946 15.519-15.515 15.519s-15.515-6.948-15.515-15.519c0-8.571 6.946-15.519 15.515-15.519s15.515 6.948 15.515 15.519z"></path>
<path d="M15.515 7.301c-5.013 0-9.127 4.114-9.127 9.129 0 4.278 3.001 8.165 6.988 9.129v-3.020c-0.158 0.040-0.34 0.063-0.526 0.063-0.226 0-0.444-0.034-0.65-0.096l0.016 0.004c-0.539-0.16-0.977-0.52-1.303-1.067-0.207-0.351-0.574-0.73-0.958-0.702l-0.094-1.067c0.829-0.070 1.547 0.506 1.972 1.222 0.189 0.318 0.407 0.504 0.686 0.587 0.271 0.079 0.56 0.042 0.898-0.078 0.085-0.677 0.395-0.931 0.629-1.287-2.378-0.355-3.325-1.616-3.7-2.612-0.498-1.322-0.232-2.973 0.65-4.017 0.017-0.019 0.049-0.074 0.036-0.111-0.403-1.221 0.088-2.23 0.107-2.337 0.465 0.138 0.542-0.139 2.025 0.762l0.257 0.154c0.107 0.064 0.074 0.027 0.18 0.019 0.572-0.162 1.23-0.259 1.91-0.27l0.006-0c0.695 0.011 1.362 0.111 1.996 0.29l-0.055-0.013 0.082 0.008c-0.007 0 0.023-0.005 0.073-0.035 1.853-1.122 1.786-0.755 2.284-0.917 0.017 0.108 0.504 1.135 0.104 2.339-0.053 0.166 1.607 1.687 0.687 4.128-0.376 0.996-1.324 2.257-3.7 2.612 0.305 0.465 0.67 0.712 0.669 1.67v3.77c3.985-0.963 6.987-4.85 6.987-9.129 0-5.013-4.113-9.129-9.126-9.129z"></path>
</symbol>
<symbol id="telegram" viewBox="0 0 32 32">
<path fill="#f8d24e" style="fill: var(--color1, #f8d24e)" d="M31.258 16.43c0 8.571-6.946 15.519-15.515 15.519s-15.515-6.948-15.515-15.519c0-8.571 6.946-15.519 15.515-15.519s15.515 6.948 15.515 15.519z"></path>
<path d="M12.705 18.735l-0.307 4.044c0.44 0 0.63-0.177 0.86-0.39l2.065-1.842 4.281 2.927c0.785 0.407 1.338 0.194 1.55-0.675l2.81-12.291c0.25-1.084-0.419-1.508-1.183-1.241l-16.517 5.902c-1.128 0.407-1.11 0.995-0.192 1.261l4.223 1.226 9.807-5.729c0.462-0.285 0.882-0.128 0.536 0.158l-7.934 6.65z"></path>
<symbol id="contacts-button__icon" viewBox="0 0 32 32">
<path fill="none" stroke-linejoin="round" stroke-linecap="round" stroke-miterlimit="4" stroke-width="5.3333" d="M10.667 5.333l13.2 10.667-13.2 10.667"></path>
</symbol>

</defs>
</svg>