<svg aria-hidden="true" style="position: absolute; width: 0; height: 0; overflow: hidden;" version="1.1"
    xmlns="http://www.w3.org/2000/svg" xmlns:xlink="http://www.w3.org/1999/xlink">
    <defs>
        <symbol id="hero-green-smile_d-1x" viewBox="0 0 35 32">
            <path fill="#fff" style="fill: var(--color1, #fff)"
                d="M12.353 17.514c1.267 0.696 3.265-0.337 4.462-2.306s1.142-4.129-0.125-4.825c-1.267-0.696-3.265 0.337-4.462 2.306s-1.142 4.13 0.125 4.825z">
            </path>
            <path fill="#000" style="fill: var(--color2, #000)"
                d="M16.593 10.543c1.152 0.633 1.178 2.727 0.055 4.573s-3.045 2.871-4.197 2.238c-1.152-0.633-1.178-2.727-0.055-4.573s3.046-2.871 4.197-2.238zM16.787 10.224c-1.359-0.747-3.476 0.316-4.727 2.373s-1.163 4.331 0.196 5.077c1.359 0.747 3.476-0.316 4.727-2.373s1.165-4.33-0.196-5.077z">
            </path>
            <path fill="#fff" style="fill: var(--color1, #fff)"
                d="M20.081 21.754c1.267 0.696 3.265-0.337 4.462-2.306s1.142-4.129-0.125-4.825c-1.267-0.696-3.265 0.337-4.462 2.306s-1.142 4.129 0.125 4.825z">
            </path>
            <path fill="#000" style="fill: var(--color2, #000)"
                d="M24.321 14.783c1.152 0.633 1.178 2.727 0.055 4.573s-3.045 2.871-4.197 2.238c-1.152-0.633-1.178-2.727-0.055-4.573s3.046-2.871 4.197-2.238zM24.515 14.464c-1.36-0.747-3.476 0.316-4.727 2.373s-1.163 4.331 0.196 5.077c1.359 0.747 3.476-0.316 4.727-2.373s1.165-4.33-0.196-5.077zM13.453 15.705c0.711 0.39 1.823-0.175 2.484-1.262s0.621-2.285-0.089-2.676c-0.711-0.39-1.823 0.175-2.484 1.262s-0.621 2.285 0.089 2.676z">
            </path>
            <path fill="#000" style="fill: var(--color2, #000)"
                d="M15.816 11.82c0.679 0.373 0.708 1.535 0.066 2.592s-1.717 1.613-2.396 1.24c-0.679-0.373-0.708-1.535-0.066-2.592s1.718-1.612 2.396-1.24zM15.88 11.714c-0.742-0.407-1.894 0.168-2.573 1.285s-0.629 2.352 0.113 2.76c0.742 0.408 1.894-0.168 2.573-1.285s0.629-2.352-0.113-2.76zM21.181 19.945c0.711 0.39 1.823-0.175 2.484-1.262s0.621-2.285-0.089-2.676c-0.711-0.39-1.823 0.175-2.484 1.262s-0.621 2.285 0.089 2.676z">
            </path>
            <path fill="#000" style="fill: var(--color2, #000)"
                d="M23.544 16.060c0.679 0.373 0.708 1.535 0.066 2.592s-1.717 1.613-2.396 1.24c-0.679-0.373-0.708-1.535-0.066-2.592s1.718-1.612 2.396-1.24zM23.608 15.954c-0.742-0.407-1.894 0.168-2.573 1.285s-0.629 2.352 0.113 2.76c0.742 0.407 1.894-0.168 2.573-1.285s0.629-2.352-0.113-2.76z">
            </path>
            <path fill="#fff" style="fill: var(--color1, #fff)"
                d="M14.978 14.2c0.428 0.235 1.035-0.004 1.357-0.533s0.236-1.148-0.192-1.383c-0.428-0.235-1.035 0.004-1.357 0.533s-0.236 1.148 0.192 1.383zM22.706 18.44c0.428 0.235 1.035-0.004 1.357-0.533s0.236-1.148-0.192-1.383c-0.428-0.235-1.035 0.004-1.357 0.533s-0.236 1.148 0.192 1.383z">
            </path>
            <path fill="#000" style="fill: var(--color2, #000)"
                d="M15.614 7.608c1.426 0.096 2.721 0.811 3.522 1.936 0.279 0.391 0.956 0.027 0.676-0.366-0.967-1.359-2.477-2.193-4.201-2.309-0.497-0.034-0.494 0.706 0.003 0.739zM23.678 12.032c1.426 0.096 2.721 0.81 3.522 1.936 0.279 0.391 0.956 0.027 0.676-0.366-0.967-1.359-2.477-2.193-4.201-2.309-0.498-0.034-0.494 0.706 0.003 0.739z">
            </path>
            <path fill="none" stroke="#000" stroke-width="0.4638" stroke-miterlimit="10" stroke-linecap="butt"
                stroke-linejoin="miter" style="stroke: var(--color2, #000)"
                d="M13.398 24.401c-5.784-3.173-8.851-8.414-6.851-11.706"></path>
            <path fill="none" stroke="#000" stroke-width="0.4638" stroke-miterlimit="10" stroke-linecap="butt"
                stroke-linejoin="miter" style="stroke: var(--color2, #000)"
                d="M27.491 24.186c-2 3.292-8.31 3.388-14.093 0.215M5.153 12.286l2.917 0.607M26.692 23.535l1.663 1.196">
            </path>
        </symbol>
        <symbol id="hero-green-smile_d-2x" viewBox="0 0 35 32">
            <path fill="#fff" style="fill: var(--color1, #fff)"
                d="M12.353 17.514c1.267 0.696 3.265-0.337 4.462-2.306s1.142-4.129-0.125-4.825c-1.267-0.696-3.265 0.337-4.462 2.306s-1.142 4.13 0.125 4.825z">
            </path>
            <path fill="#000" style="fill: var(--color2, #000)"
                d="M16.593 10.543c1.152 0.633 1.178 2.727 0.055 4.573s-3.045 2.871-4.197 2.238c-1.152-0.633-1.178-2.727-0.055-4.573s3.046-2.871 4.197-2.238zM16.787 10.224c-1.359-0.747-3.476 0.316-4.727 2.373s-1.163 4.331 0.196 5.077c1.359 0.747 3.476-0.316 4.727-2.373s1.165-4.33-0.196-5.077z">
            </path>
            <path fill="#fff" style="fill: var(--color1, #fff)"
                d="M20.081 21.754c1.267 0.696 3.265-0.337 4.462-2.306s1.142-4.129-0.125-4.825c-1.267-0.696-3.265 0.337-4.462 2.306s-1.142 4.129 0.125 4.825z">
            </path>
            <path fill="#000" style="fill: var(--color2, #000)"
                d="M24.321 14.783c1.152 0.633 1.178 2.727 0.055 4.573s-3.045 2.871-4.197 2.238c-1.152-0.633-1.178-2.727-0.055-4.573s3.046-2.871 4.197-2.238zM24.515 14.464c-1.36-0.747-3.476 0.316-4.727 2.373s-1.163 4.331 0.196 5.077c1.359 0.747 3.476-0.316 4.727-2.373s1.165-4.33-0.196-5.077zM13.453 15.705c0.711 0.39 1.823-0.175 2.484-1.262s0.621-2.285-0.089-2.676c-0.711-0.39-1.823 0.175-2.484 1.262s-0.621 2.285 0.089 2.676z">
            </path>
            <path fill="#000" style="fill: var(--color2, #000)"
                d="M15.816 11.82c0.679 0.373 0.708 1.535 0.066 2.592s-1.717 1.613-2.396 1.24c-0.679-0.373-0.708-1.535-0.066-2.592s1.718-1.612 2.396-1.24zM15.88 11.714c-0.742-0.407-1.894 0.168-2.573 1.285s-0.629 2.352 0.113 2.76c0.742 0.408 1.894-0.168 2.573-1.285s0.629-2.352-0.113-2.76zM21.181 19.945c0.711 0.39 1.823-0.175 2.484-1.262s0.621-2.285-0.089-2.676c-0.711-0.39-1.823 0.175-2.484 1.262s-0.621 2.285 0.089 2.676z">
            </path>
            <path fill="#000" style="fill: var(--color2, #000)"
                d="M23.544 16.060c0.679 0.373 0.708 1.535 0.066 2.592s-1.717 1.613-2.396 1.24c-0.679-0.373-0.708-1.535-0.066-2.592s1.718-1.612 2.396-1.24zM23.608 15.954c-0.742-0.407-1.894 0.168-2.573 1.285s-0.629 2.352 0.113 2.76c0.742 0.407 1.894-0.168 2.573-1.285s0.629-2.352-0.113-2.76z">
            </path>
            <path fill="#fff" style="fill: var(--color1, #fff)"
                d="M14.978 14.2c0.428 0.235 1.035-0.004 1.357-0.533s0.236-1.148-0.192-1.383c-0.428-0.235-1.035 0.004-1.357 0.533s-0.236 1.148 0.192 1.383zM22.706 18.44c0.428 0.235 1.035-0.004 1.357-0.533s0.236-1.148-0.192-1.383c-0.428-0.235-1.035 0.004-1.357 0.533s-0.236 1.148 0.192 1.383z">
            </path>
            <path fill="#000" style="fill: var(--color2, #000)"
                d="M15.614 7.608c1.426 0.096 2.721 0.811 3.522 1.936 0.279 0.391 0.956 0.027 0.676-0.366-0.967-1.359-2.477-2.193-4.201-2.309-0.497-0.034-0.494 0.706 0.003 0.739zM23.678 12.032c1.426 0.096 2.721 0.81 3.522 1.936 0.279 0.391 0.956 0.027 0.676-0.366-0.967-1.359-2.477-2.193-4.201-2.309-0.498-0.034-0.494 0.706 0.003 0.739z">
            </path>
            <path fill="none" stroke="#000" stroke-width="0.4638" stroke-miterlimit="10" stroke-linecap="butt"
                stroke-linejoin="miter" style="stroke: var(--color2, #000)"
                d="M13.398 24.401c-5.784-3.173-8.851-8.414-6.851-11.706"></path>
            <path fill="none" stroke="#000" stroke-width="0.4638" stroke-miterlimit="10" stroke-linecap="butt"
                stroke-linejoin="miter" style="stroke: var(--color2, #000)"
                d="M27.491 24.186c-2 3.292-8.31 3.388-14.093 0.215M5.153 12.286l2.917 0.607M26.692 23.535l1.663 1.196">
            </path>
        </symbol>
        <symbol id="hero-green-smile_m-1x" viewBox="0 0 33 32">
            <path fill="#fcfcfc" style="fill: var(--color3, #fcfcfc)"
                d="M11.929 16.414c1.182 0.692 3.045-0.336 4.16-2.297s1.060-4.112-0.122-4.805c-1.182-0.693-3.044 0.335-4.16 2.296s-1.060 4.112 0.122 4.805z">
            </path>
            <path fill="#131313" style="fill: var(--color4, #131313)"
                d="M15.877 9.47c1.076 0.631 1.101 2.716 0.056 4.555s-2.837 2.86-3.913 2.229c-1.075-0.63-1.101-2.716-0.055-4.554s2.838-2.859 3.912-2.229zM16.057 9.152c-1.268-0.743-3.241 0.315-4.406 2.364s-1.081 4.313 0.188 5.056c1.268 0.744 3.241-0.315 4.406-2.363s1.081-4.312-0.188-5.056z">
            </path>
            <path fill="#fcfcfc" style="fill: var(--color3, #fcfcfc)"
                d="M19.131 20.636c1.182 0.692 3.044-0.336 4.159-2.297s1.061-4.112-0.122-4.805c-1.182-0.693-3.044 0.335-4.159 2.296s-1.061 4.112 0.122 4.805z">
            </path>
            <path fill="#131313" style="fill: var(--color4, #131313)"
                d="M23.079 13.693c1.075 0.63 1.101 2.716 0.055 4.554s-2.837 2.86-3.912 2.229c-1.076-0.63-1.101-2.715-0.056-4.554s2.838-2.859 3.913-2.229zM23.259 13.375c-1.268-0.743-3.241 0.315-4.406 2.363s-1.081 4.313 0.188 5.056c1.269 0.743 3.241-0.315 4.406-2.363s1.082-4.312-0.188-5.056zM12.952 14.611c0.663 0.389 1.7-0.174 2.316-1.257s0.577-2.276-0.086-2.665c-0.663-0.389-1.7 0.174-2.316 1.257s-0.577 2.276 0.086 2.665z">
            </path>
            <path fill="#131313" style="fill: var(--color4, #131313)"
                d="M15.152 10.743c0.634 0.371 0.662 1.529 0.064 2.581s-1.599 1.606-2.233 1.235c-0.634-0.372-0.663-1.529-0.064-2.581s1.6-1.606 2.233-1.235zM15.212 10.637c-0.693-0.406-1.766 0.167-2.398 1.279s-0.585 2.343 0.108 2.748c0.692 0.406 1.766-0.168 2.398-1.28s0.584-2.343-0.108-2.748zM20.157 18.834c0.663 0.389 1.7-0.174 2.316-1.257s0.577-2.276-0.086-2.664c-0.663-0.389-1.7 0.174-2.316 1.257s-0.577 2.276 0.086 2.665z">
            </path>
            <path fill="#131313" style="fill: var(--color4, #131313)"
                d="M22.356 14.965c0.634 0.371 0.663 1.529 0.064 2.581s-1.6 1.606-2.233 1.235c-0.634-0.372-0.662-1.529-0.064-2.581s1.6-1.605 2.233-1.234zM22.416 14.86c-0.692-0.406-1.766 0.167-2.398 1.279s-0.584 2.343 0.108 2.748c0.692 0.406 1.766-0.168 2.398-1.28s0.585-2.343-0.108-2.748z">
            </path>
            <path fill="#fcfcfc" style="fill: var(--color3, #fcfcfc)"
                d="M14.372 13.112c0.399 0.234 0.965-0.003 1.265-0.53s0.219-1.143-0.181-1.377c-0.399-0.234-0.965 0.003-1.265 0.53s-0.219 1.143 0.181 1.377zM21.575 17.335c0.4 0.234 0.966-0.004 1.265-0.53s0.219-1.144-0.18-1.378c-0.399-0.234-0.965 0.004-1.264 0.53s-0.219 1.144 0.18 1.378z">
            </path>
            <path fill="#131313" style="fill: var(--color4, #131313)"
                d="M14.965 6.548c1.329 0.096 2.537 0.807 3.286 1.925 0.261 0.389 0.89 0.027 0.628-0.364-0.904-1.35-2.313-2.18-3.918-2.296-0.464-0.034-0.458 0.701 0.004 0.734zM22.481 10.954c1.329 0.096 2.537 0.807 3.286 1.925 0.261 0.389 0.89 0.028 0.628-0.363-0.904-1.35-2.313-2.18-3.918-2.296-0.464-0.034-0.458 0.7 0.004 0.734z">
            </path>
            <path fill="none" stroke="#131313" stroke-width="0.6605" stroke-miterlimit="10" stroke-linecap="butt"
                stroke-linejoin="miter" style="stroke: var(--color4, #131313)"
                d="M12.899 23.272c-5.392-3.16-8.25-8.38-6.386-11.657M26.037 23.058c-1.864 3.278-7.746 3.374-13.136 0.214M5.214 11.206l2.719 0.604M25.291 22.409l1.55 1.191">
            </path>
        </symbol>
        <symbol id="hero-green-smile_m-2x" viewBox="0 0 33 32">
            <path fill="#fcfcfc" style="fill: var(--color3, #fcfcfc)"
                d="M11.929 16.414c1.182 0.692 3.045-0.336 4.16-2.297s1.060-4.112-0.122-4.805c-1.182-0.693-3.044 0.335-4.16 2.296s-1.060 4.112 0.122 4.805z">
            </path>
            <path fill="#131313" style="fill: var(--color4, #131313)"
                d="M15.877 9.47c1.076 0.631 1.101 2.716 0.056 4.555s-2.837 2.86-3.913 2.229c-1.075-0.63-1.101-2.716-0.055-4.554s2.838-2.859 3.912-2.229zM16.057 9.152c-1.268-0.743-3.241 0.315-4.406 2.364s-1.081 4.313 0.188 5.056c1.268 0.744 3.241-0.315 4.406-2.363s1.081-4.312-0.188-5.056z">
            </path>
            <path fill="#fcfcfc" style="fill: var(--color3, #fcfcfc)"
                d="M19.131 20.636c1.182 0.692 3.044-0.336 4.159-2.297s1.061-4.112-0.122-4.805c-1.182-0.693-3.044 0.335-4.159 2.296s-1.061 4.112 0.122 4.805z">
            </path>
            <path fill="#131313" style="fill: var(--color4, #131313)"
                d="M23.079 13.693c1.075 0.63 1.101 2.716 0.055 4.554s-2.837 2.86-3.912 2.229c-1.076-0.63-1.101-2.715-0.056-4.554s2.838-2.859 3.913-2.229zM23.259 13.375c-1.268-0.743-3.241 0.315-4.406 2.363s-1.081 4.313 0.188 5.056c1.269 0.743 3.241-0.315 4.406-2.363s1.082-4.312-0.188-5.056zM12.952 14.611c0.663 0.389 1.7-0.174 2.316-1.257s0.577-2.276-0.086-2.665c-0.663-0.389-1.7 0.174-2.316 1.257s-0.577 2.276 0.086 2.665z">
            </path>
            <path fill="#131313" style="fill: var(--color4, #131313)"
                d="M15.152 10.743c0.634 0.371 0.662 1.529 0.064 2.581s-1.599 1.606-2.233 1.235c-0.634-0.372-0.663-1.529-0.064-2.581s1.6-1.606 2.233-1.235zM15.212 10.637c-0.693-0.406-1.766 0.167-2.398 1.279s-0.585 2.343 0.108 2.748c0.692 0.406 1.766-0.168 2.398-1.28s0.584-2.343-0.108-2.748zM20.157 18.834c0.663 0.389 1.7-0.174 2.316-1.257s0.577-2.276-0.086-2.664c-0.663-0.389-1.7 0.174-2.316 1.257s-0.577 2.276 0.086 2.665z">
            </path>
            <path fill="#131313" style="fill: var(--color4, #131313)"
                d="M22.356 14.965c0.634 0.371 0.663 1.529 0.064 2.581s-1.6 1.606-2.233 1.235c-0.634-0.372-0.662-1.529-0.064-2.581s1.6-1.605 2.233-1.234zM22.416 14.86c-0.692-0.406-1.766 0.167-2.398 1.279s-0.584 2.343 0.108 2.748c0.692 0.406 1.766-0.168 2.398-1.28s0.585-2.343-0.108-2.748z">
            </path>
            <path fill="#fcfcfc" style="fill: var(--color3, #fcfcfc)"
                d="M14.372 13.112c0.399 0.234 0.965-0.003 1.265-0.53s0.219-1.143-0.181-1.377c-0.399-0.234-0.965 0.003-1.265 0.53s-0.219 1.143 0.181 1.377zM21.575 17.335c0.4 0.234 0.966-0.004 1.265-0.53s0.219-1.144-0.18-1.378c-0.399-0.234-0.965 0.004-1.264 0.53s-0.219 1.144 0.18 1.378z">
            </path>
            <path fill="#131313" style="fill: var(--color4, #131313)"
                d="M14.965 6.548c1.329 0.096 2.537 0.807 3.286 1.925 0.261 0.389 0.89 0.027 0.628-0.364-0.904-1.35-2.313-2.18-3.918-2.296-0.464-0.034-0.458 0.701 0.004 0.734zM22.481 10.954c1.329 0.096 2.537 0.807 3.286 1.925 0.261 0.389 0.89 0.028 0.628-0.363-0.904-1.35-2.313-2.18-3.918-2.296-0.464-0.034-0.458 0.7 0.004 0.734z">
            </path>
            <path fill="none" stroke="#131313" stroke-width="0.6605" stroke-miterlimit="10" stroke-linecap="butt"
                stroke-linejoin="miter" style="stroke: var(--color4, #131313)"
                d="M12.899 23.272c-5.392-3.16-8.25-8.38-6.386-11.657M26.037 23.058c-1.864 3.278-7.746 3.374-13.136 0.214M5.214 11.206l2.719 0.604M25.291 22.409l1.55 1.191">
            </path>
        </symbol>
        <symbol id="hero-green-smile_t-1x" viewBox="0 0 33 32">
            <path fill="#fff" style="fill: var(--color1, #fff)"
                d="M12.051 16.451c1.2 0.694 3.091-0.336 4.224-2.299s1.077-4.118-0.123-4.812-3.091 0.336-4.224 2.299c-1.132 1.964-1.077 4.118 0.123 4.812z">
            </path>
            <path fill="#000" style="fill: var(--color2, #000)"
                d="M16.060 9.499c1.092 0.631 1.117 2.719 0.056 4.561s-2.881 2.863-3.973 2.232c-1.092-0.631-1.117-2.719-0.056-4.561s2.882-2.863 3.973-2.232zM16.243 9.181c-1.288-0.744-3.291 0.315-4.474 2.367s-1.098 4.318 0.19 5.063c1.288 0.744 3.291-0.315 4.475-2.367s1.099-4.318-0.19-5.063z">
            </path>
            <path fill="#fff" style="fill: var(--color1, #fff)"
                d="M19.365 20.679c1.201 0.694 3.091-0.336 4.224-2.299s1.078-4.118-0.123-4.812c-1.2-0.694-3.091 0.336-4.224 2.299s-1.077 4.118 0.123 4.812z">
            </path>
            <path fill="#000" style="fill: var(--color2, #000)"
                d="M23.374 13.727c1.092 0.631 1.118 2.719 0.056 4.561s-2.881 2.863-3.973 2.232c-1.092-0.631-1.117-2.719-0.056-4.561s2.882-2.862 3.973-2.232zM23.558 13.409c-1.288-0.745-3.291 0.315-4.474 2.367s-1.098 4.318 0.19 5.063c1.288 0.745 3.292-0.315 4.474-2.366s1.099-4.318-0.19-5.063zM13.091 14.647c0.674 0.389 1.726-0.174 2.352-1.259s0.587-2.279-0.087-2.668c-0.674-0.389-1.726 0.174-2.351 1.259s-0.586 2.279 0.087 2.668z">
            </path>
            <path fill="#000" style="fill: var(--color2, #000)"
                d="M15.325 10.772c0.644 0.372 0.672 1.531 0.065 2.585s-1.624 1.608-2.268 1.236c-0.643-0.372-0.672-1.531-0.065-2.585s1.625-1.608 2.268-1.236zM15.387 10.666c-0.703-0.406-1.793 0.168-2.435 1.281s-0.594 2.345 0.109 2.752c0.703 0.406 1.793-0.168 2.435-1.281s0.594-2.345-0.109-2.752zM20.406 18.875c0.673 0.389 1.726-0.174 2.351-1.259s0.587-2.279-0.087-2.668c-0.674-0.389-1.726 0.174-2.352 1.259s-0.587 2.279 0.087 2.668z">
            </path>
            <path fill="#000" style="fill: var(--color2, #000)"
                d="M22.64 15.001c0.643 0.372 0.672 1.531 0.064 2.584s-1.624 1.608-2.268 1.236-0.672-1.53-0.065-2.584c0.608-1.054 1.625-1.608 2.268-1.236zM22.701 14.895c-0.703-0.407-1.793 0.168-2.435 1.281s-0.594 2.346 0.109 2.752 1.793-0.168 2.435-1.281c0.642-1.113 0.594-2.346-0.109-2.752z">
            </path>
            <path fill="#fff" style="fill: var(--color1, #fff)"
                d="M14.534 13.145c0.405 0.234 0.98-0.003 1.284-0.531s0.222-1.145-0.183-1.379c-0.405-0.234-0.98 0.004-1.284 0.531s-0.222 1.145 0.183 1.379zM21.848 17.373c0.405 0.234 0.98-0.004 1.284-0.531s0.222-1.145-0.183-1.379c-0.405-0.234-0.98 0.004-1.284 0.531s-0.222 1.145 0.183 1.379z">
            </path>
            <path fill="#000" style="fill: var(--color2, #000)"
                d="M15.136 6.572c1.391 0.103 2.591 0.837 3.327 1.913l0.010 0.015c0.264 0.389 0.904 0.028 0.638-0.364-0.918-1.353-2.348-2.184-3.979-2.3-0.471-0.034-0.466 0.702 0.004 0.735zM22.769 10.984c1.391 0.103 2.591 0.837 3.327 1.913l0.010 0.015c0.264 0.389 0.904 0.028 0.638-0.364-0.918-1.352-2.348-2.184-3.979-2.3-0.471-0.034-0.465 0.702 0.004 0.735z">
            </path>
            <path fill="none" stroke="#000" stroke-width="0.4404" stroke-miterlimit="10" stroke-linecap="butt"
                stroke-linejoin="miter" style="stroke: var(--color2, #000)"
                d="M13.038 23.318c-5.475-3.164-8.378-8.39-6.485-11.672M26.377 23.104c-1.893 3.283-7.865 3.379-13.34 0.214M5.234 11.237l2.761 0.605M25.621 22.455l1.574 1.193">
            </path>
        </symbol>
        <symbol id="hero-green-smile_t-2x" viewBox="0 0 33 32">
            <path fill="#fff" style="fill: var(--color1, #fff)"
                d="M12.051 16.451c1.2 0.694 3.091-0.336 4.224-2.299s1.077-4.118-0.123-4.812-3.091 0.336-4.224 2.299c-1.132 1.964-1.077 4.118 0.123 4.812z">
            </path>
            <path fill="#000" style="fill: var(--color2, #000)"
                d="M16.060 9.499c1.092 0.631 1.117 2.719 0.056 4.561s-2.881 2.863-3.973 2.232c-1.092-0.631-1.117-2.719-0.056-4.561s2.882-2.863 3.973-2.232zM16.243 9.181c-1.288-0.744-3.291 0.315-4.474 2.367s-1.098 4.318 0.19 5.063c1.288 0.744 3.291-0.315 4.475-2.367s1.099-4.318-0.19-5.063z">
            </path>
            <path fill="#fff" style="fill: var(--color1, #fff)"
                d="M19.365 20.679c1.201 0.694 3.091-0.336 4.224-2.299s1.078-4.118-0.123-4.812c-1.2-0.694-3.091 0.336-4.224 2.299s-1.077 4.118 0.123 4.812z">
            </path>
            <path fill="#000" style="fill: var(--color2, #000)"
                d="M23.374 13.727c1.092 0.631 1.118 2.719 0.056 4.561s-2.881 2.863-3.973 2.232c-1.092-0.631-1.117-2.719-0.056-4.561s2.882-2.862 3.973-2.232zM23.558 13.409c-1.288-0.745-3.291 0.315-4.474 2.367s-1.098 4.318 0.19 5.063c1.288 0.745 3.292-0.315 4.474-2.366s1.099-4.318-0.19-5.063zM13.091 14.647c0.674 0.389 1.726-0.174 2.352-1.259s0.587-2.279-0.087-2.668c-0.674-0.389-1.726 0.174-2.351 1.259s-0.586 2.279 0.087 2.668z">
            </path>
            <path fill="#000" style="fill: var(--color2, #000)"
                d="M15.325 10.772c0.644 0.372 0.672 1.531 0.065 2.585s-1.624 1.608-2.268 1.236c-0.643-0.372-0.672-1.531-0.065-2.585s1.625-1.608 2.268-1.236zM15.387 10.666c-0.703-0.406-1.793 0.168-2.435 1.281s-0.594 2.345 0.109 2.752c0.703 0.406 1.793-0.168 2.435-1.281s0.594-2.345-0.109-2.752zM20.406 18.875c0.673 0.389 1.726-0.174 2.351-1.259s0.587-2.279-0.087-2.668c-0.674-0.389-1.726 0.174-2.352 1.259s-0.587 2.279 0.087 2.668z">
            </path>
            <path fill="#000" style="fill: var(--color2, #000)"
                d="M22.64 15.001c0.643 0.372 0.672 1.531 0.064 2.584s-1.624 1.608-2.268 1.236-0.672-1.53-0.065-2.584c0.608-1.054 1.625-1.608 2.268-1.236zM22.701 14.895c-0.703-0.407-1.793 0.168-2.435 1.281s-0.594 2.346 0.109 2.752 1.793-0.168 2.435-1.281c0.642-1.113 0.594-2.346-0.109-2.752z">
            </path>
            <path fill="#fff" style="fill: var(--color1, #fff)"
                d="M14.534 13.145c0.405 0.234 0.98-0.003 1.284-0.531s0.222-1.145-0.183-1.379c-0.405-0.234-0.98 0.004-1.284 0.531s-0.222 1.145 0.183 1.379zM21.848 17.373c0.405 0.234 0.98-0.004 1.284-0.531s0.222-1.145-0.183-1.379c-0.405-0.234-0.98 0.004-1.284 0.531s-0.222 1.145 0.183 1.379z">
            </path>
            <path fill="#000" style="fill: var(--color2, #000)"
                d="M15.136 6.572c1.391 0.103 2.591 0.837 3.327 1.913l0.010 0.015c0.264 0.389 0.904 0.028 0.638-0.364-0.918-1.353-2.348-2.184-3.979-2.3-0.471-0.034-0.466 0.702 0.004 0.735zM22.769 10.984c1.391 0.103 2.591 0.837 3.327 1.913l0.010 0.015c0.264 0.389 0.904 0.028 0.638-0.364-0.918-1.352-2.348-2.184-3.979-2.3-0.471-0.034-0.465 0.702 0.004 0.735z">
            </path>
            <path fill="none" stroke="#000" stroke-width="0.4404" stroke-miterlimit="10" stroke-linecap="butt"
                stroke-linejoin="miter" style="stroke: var(--color2, #000)"
                d="M13.038 23.318c-5.475-3.164-8.378-8.39-6.485-11.672M26.377 23.104c-1.893 3.283-7.865 3.379-13.34 0.214M5.234 11.237l2.761 0.605M25.621 22.455l1.574 1.193">
            </path>
        </symbol>
        <symbol id="hero-orange-smile_d-1x" viewBox="0 0 35 32">
            <path fill="#fff" style="fill: var(--color1, #fff)"
                d="M13.369 21.857c1.491-0.477 2.034-2.742 1.213-5.059s-2.695-3.809-4.185-3.332c-1.491 0.477-2.034 2.742-1.213 5.059s2.695 3.809 4.185 3.332z">
            </path>
            <path fill="#000" style="fill: var(--color2, #000)"
                d="M10.464 13.653c1.356-0.434 3.151 1.035 3.921 3.208s0.274 4.374-1.082 4.808c-1.356 0.434-3.151-1.035-3.921-3.208s-0.273-4.375 1.082-4.808zM10.331 13.278c-1.6 0.512-2.201 2.889-1.344 5.31s2.85 3.969 4.449 3.457c1.6-0.512 2.201-2.889 1.344-5.31s-2.848-3.969-4.449-3.457z">
            </path>
            <path fill="#fff" style="fill: var(--color1, #fff)"
                d="M22.462 18.953c1.491-0.477 2.034-2.742 1.213-5.059s-2.694-3.809-4.185-3.332c-1.491 0.477-2.034 2.742-1.213 5.059s2.695 3.809 4.185 3.333z">
            </path>
            <path fill="#000" style="fill: var(--color2, #000)"
                d="M19.557 10.75c1.356-0.434 3.151 1.035 3.921 3.208s0.274 4.374-1.082 4.808c-1.356 0.434-3.151-1.035-3.921-3.208s-0.273-4.375 1.082-4.808zM19.424 10.374c-1.6 0.512-2.201 2.889-1.344 5.31s2.85 3.969 4.449 3.457c1.6-0.512 2.201-2.889 1.344-5.31s-2.848-3.969-4.449-3.457zM12.615 19.728c0.836-0.267 1.147-1.522 0.693-2.801s-1.499-2.1-2.335-1.833c-0.836 0.268-1.147 1.522-0.693 2.801s1.499 2.1 2.335 1.833z">
            </path>
            <path fill="#000" style="fill: var(--color2, #000)"
                d="M10.996 15.156c0.799-0.256 1.806 0.547 2.247 1.791s0.149 2.462-0.65 2.718c-0.799 0.256-1.806-0.547-2.247-1.791s-0.148-2.462 0.65-2.718zM10.952 15.031c-0.873 0.279-1.202 1.571-0.737 2.885s1.55 2.154 2.423 1.874c0.873-0.279 1.203-1.571 0.737-2.885s-1.55-2.154-2.423-1.874zM21.709 16.824c0.836-0.267 1.147-1.522 0.693-2.801s-1.499-2.1-2.335-1.833c-0.836 0.267-1.147 1.522-0.693 2.801s1.499 2.1 2.335 1.833z">
            </path>
            <path fill="#000" style="fill: var(--color2, #000)"
                d="M20.089 12.253c0.799-0.256 1.806 0.547 2.247 1.791s0.149 2.462-0.65 2.718c-0.799 0.256-1.806-0.547-2.247-1.791s-0.148-2.462 0.65-2.718zM20.045 12.127c-0.873 0.279-1.202 1.571-0.737 2.885s1.55 2.154 2.423 1.874c0.873-0.279 1.202-1.571 0.737-2.885s-1.55-2.154-2.423-1.875z">
            </path>
            <path fill="#fff" style="fill: var(--color1, #fff)"
                d="M11.191 17.743c0.503-0.161 0.732-0.796 0.512-1.419s-0.807-0.997-1.31-0.836c-0.503 0.161-0.732 0.796-0.512 1.419s0.807 0.997 1.311 0.836zM20.196 14.589c0.503-0.161 0.732-0.796 0.512-1.419s-0.807-0.997-1.31-0.836c-0.503 0.161-0.733 0.796-0.512 1.419s0.807 0.997 1.311 0.836z">
            </path>
            <path fill="#000" style="fill: var(--color2, #000)"
                d="M7.962 11.966c0.221-0.762 0.614-1.546 1.418-1.878 0.748-0.308 1.588-0.115 2.309 0.176 0.493 0.2 0.866-0.511 0.37-0.711-0.959-0.389-2.059-0.604-3.047-0.181-1.040 0.445-1.577 1.433-1.867 2.432-0.143 0.494 0.674 0.652 0.817 0.162zM17.553 8.117c2.092 0.224 4.245-0.049 6.191-0.814 0.493-0.193 0.23-0.949-0.267-0.754-1.806 0.708-3.809 0.997-5.756 0.789-0.531-0.058-0.702 0.72-0.168 0.778z">
            </path>
            <path fill="none" stroke="#000" stroke-width="0.5854" stroke-miterlimit="10" stroke-linecap="butt"
                stroke-linejoin="miter" style="stroke: var(--color2, #000)"
                d="M20.568 26.874c-6.805 2.173-13.432 0.795-14.802-3.078M30.41 15.926c1.37 3.873-3.037 8.774-9.842 10.947M4.427 24.572l2.589-1.803M29.289 16.075l2.197-0.423">
            </path>
        </symbol>
        <symbol id="hero-orange-smile_d-2x" viewBox="0 0 35 32">
            <path fill="#fff" style="fill: var(--color1, #fff)"
                d="M13.369 21.857c1.491-0.477 2.034-2.742 1.213-5.059s-2.695-3.809-4.185-3.332c-1.491 0.477-2.034 2.742-1.213 5.059s2.695 3.809 4.185 3.332z">
            </path>
            <path fill="#000" style="fill: var(--color2, #000)"
                d="M10.464 13.653c1.356-0.434 3.151 1.035 3.921 3.208s0.274 4.374-1.082 4.808c-1.356 0.434-3.151-1.035-3.921-3.208s-0.273-4.375 1.082-4.808zM10.331 13.278c-1.6 0.512-2.201 2.889-1.344 5.31s2.85 3.969 4.449 3.457c1.6-0.512 2.201-2.889 1.344-5.31s-2.848-3.969-4.449-3.457z">
            </path>
            <path fill="#fff" style="fill: var(--color1, #fff)"
                d="M22.462 18.953c1.491-0.477 2.034-2.742 1.213-5.059s-2.694-3.809-4.185-3.332c-1.491 0.477-2.034 2.742-1.213 5.059s2.695 3.809 4.185 3.333z">
            </path>
            <path fill="#000" style="fill: var(--color2, #000)"
                d="M19.557 10.75c1.356-0.434 3.151 1.035 3.921 3.208s0.274 4.374-1.082 4.808c-1.356 0.434-3.151-1.035-3.921-3.208s-0.273-4.375 1.082-4.808zM19.424 10.374c-1.6 0.512-2.201 2.889-1.344 5.31s2.85 3.969 4.449 3.457c1.6-0.512 2.201-2.889 1.344-5.31s-2.848-3.969-4.449-3.457zM12.615 19.728c0.836-0.267 1.147-1.522 0.693-2.801s-1.499-2.1-2.335-1.833c-0.836 0.268-1.147 1.522-0.693 2.801s1.499 2.1 2.335 1.833z">
            </path>
            <path fill="#000" style="fill: var(--color2, #000)"
                d="M10.996 15.156c0.799-0.256 1.806 0.547 2.247 1.791s0.149 2.462-0.65 2.718c-0.799 0.256-1.806-0.547-2.247-1.791s-0.148-2.462 0.65-2.718zM10.952 15.031c-0.873 0.279-1.202 1.571-0.737 2.885s1.55 2.154 2.423 1.874c0.873-0.279 1.203-1.571 0.737-2.885s-1.55-2.154-2.423-1.874zM21.709 16.824c0.836-0.267 1.147-1.522 0.693-2.801s-1.499-2.1-2.335-1.833c-0.836 0.267-1.147 1.522-0.693 2.801s1.499 2.1 2.335 1.833z">
            </path>
            <path fill="#000" style="fill: var(--color2, #000)"
                d="M20.089 12.253c0.799-0.256 1.806 0.547 2.247 1.791s0.149 2.462-0.65 2.718c-0.799 0.256-1.806-0.547-2.247-1.791s-0.148-2.462 0.65-2.718zM20.045 12.127c-0.873 0.279-1.202 1.571-0.737 2.885s1.55 2.154 2.423 1.874c0.873-0.279 1.202-1.571 0.737-2.885s-1.55-2.154-2.423-1.875z">
            </path>
            <path fill="#fff" style="fill: var(--color1, #fff)"
                d="M11.191 17.743c0.503-0.161 0.732-0.796 0.512-1.419s-0.807-0.997-1.31-0.836c-0.503 0.161-0.732 0.796-0.512 1.419s0.807 0.997 1.311 0.836zM20.196 14.589c0.503-0.161 0.732-0.796 0.512-1.419s-0.807-0.997-1.31-0.836c-0.503 0.161-0.733 0.796-0.512 1.419s0.807 0.997 1.311 0.836z">
            </path>
            <path fill="#000" style="fill: var(--color2, #000)"
                d="M7.962 11.966c0.221-0.762 0.614-1.546 1.418-1.878 0.748-0.308 1.588-0.115 2.309 0.176 0.493 0.2 0.866-0.511 0.37-0.711-0.959-0.389-2.059-0.604-3.047-0.181-1.040 0.445-1.577 1.433-1.867 2.432-0.143 0.494 0.674 0.652 0.817 0.162zM17.553 8.117c2.092 0.224 4.245-0.049 6.191-0.814 0.493-0.193 0.23-0.949-0.267-0.754-1.806 0.708-3.809 0.997-5.756 0.789-0.531-0.058-0.702 0.72-0.168 0.778z">
            </path>
            <path fill="none" stroke="#000" stroke-width="0.5854" stroke-miterlimit="10" stroke-linecap="butt"
                stroke-linejoin="miter" style="stroke: var(--color2, #000)"
                d="M20.568 26.874c-6.805 2.173-13.432 0.795-14.802-3.078M30.41 15.926c1.37 3.873-3.037 8.774-9.842 10.947M4.427 24.572l2.589-1.803M29.289 16.075l2.197-0.423">
            </path>
        </symbol>
        <symbol id="hero-orange-smile_m-1x" viewBox="0 0 33 32">
            <path fill="#fcfcfc" style="fill: var(--color3, #fcfcfc)"
                d="M12.569 20.739c1.387-0.473 1.894-2.72 1.133-5.020-0.761-2.299-2.502-3.78-3.889-3.308-1.386 0.473-1.893 2.721-1.132 5.020s2.502 3.781 3.889 3.308z">
            </path>
            <path fill="#131313" style="fill: var(--color4, #131313)"
                d="M9.875 12.597c1.261-0.43 2.929 1.027 3.643 3.183s0.251 4.341-1.010 4.771c-1.261 0.43-2.929-1.027-3.643-3.183s-0.25-4.342 1.011-4.772zM9.751 12.224c-1.487 0.507-2.049 2.867-1.254 5.27 0.796 2.403 2.647 3.939 4.134 3.431s2.049-2.867 1.254-5.27-2.645-3.939-4.134-3.431z">
            </path>
            <path fill="#fcfcfc" style="fill: var(--color3, #fcfcfc)"
                d="M21.017 17.857c1.387-0.473 1.894-2.72 1.133-5.020-0.761-2.299-2.502-3.781-3.888-3.308s-1.894 2.721-1.133 5.020c0.761 2.3 2.502 3.781 3.889 3.308z">
            </path>
            <path fill="#131313" style="fill: var(--color4, #131313)"
                d="M18.323 9.715c1.261-0.43 2.929 1.027 3.643 3.183s0.251 4.341-1.010 4.772c-1.261 0.43-2.929-1.027-3.643-3.184s-0.25-4.341 1.010-4.771zM18.199 9.342c-1.487 0.507-2.049 2.867-1.254 5.27 0.796 2.402 2.647 3.938 4.134 3.431s2.050-2.867 1.254-5.27c-0.795-2.402-2.645-3.939-4.134-3.431zM11.868 18.626c0.778-0.265 1.068-1.51 0.648-2.78s-1.391-2.085-2.169-1.819c-0.778 0.265-1.068 1.51-0.648 2.78s1.391 2.085 2.169 1.819z">
            </path>
            <path fill="#131313" style="fill: var(--color4, #131313)"
                d="M10.366 14.089c0.743-0.254 1.679 0.543 2.088 1.778s0.137 2.443-0.606 2.697c-0.743 0.254-1.679-0.543-2.088-1.778s-0.136-2.444 0.606-2.697zM10.325 13.964c-0.812 0.277-1.119 1.559-0.687 2.863s1.439 2.137 2.251 1.86c0.812-0.277 1.119-1.559 0.688-2.863s-1.439-2.137-2.251-1.86zM20.318 15.743c0.778-0.265 1.068-1.51 0.648-2.78s-1.391-2.085-2.169-1.819-1.068 1.51-0.647 2.78c0.42 1.27 1.391 2.085 2.169 1.819z">
            </path>
            <path fill="#131313" style="fill: var(--color4, #131313)"
                d="M18.817 11.206c0.743-0.253 1.679 0.543 2.088 1.778s0.137 2.443-0.606 2.697c-0.743 0.253-1.679-0.544-2.088-1.778s-0.136-2.444 0.606-2.697zM18.776 11.082c-0.812 0.277-1.119 1.559-0.687 2.863s1.439 2.137 2.251 1.86c0.812-0.277 1.12-1.559 0.688-2.863s-1.439-2.137-2.251-1.86z">
            </path>
            <path fill="#fcfcfc" style="fill: var(--color3, #fcfcfc)"
                d="M10.548 16.655c0.468-0.159 0.681-0.79 0.477-1.407s-0.749-0.989-1.218-0.829c-0.468 0.16-0.681 0.79-0.477 1.407s0.749 0.989 1.218 0.829zM18.911 13.525c0.468-0.159 0.681-0.79 0.477-1.407s-0.749-0.989-1.218-0.829c-0.468 0.159-0.681 0.79-0.477 1.407s0.749 0.989 1.218 0.829z">
            </path>
            <path fill="#131313" style="fill: var(--color4, #131313)"
                d="M7.543 10.918c0.206-0.755 0.573-1.532 1.321-1.86 0.696-0.305 1.476-0.114 2.145 0.174 0.458 0.198 0.806-0.506 0.345-0.704-0.89-0.385-1.912-0.598-2.831-0.18-0.967 0.441-1.468 1.419-1.738 2.409-0.134 0.489 0.625 0.645 0.759 0.16zM16.456 7.099c1.943 0.221 3.943-0.050 5.753-0.807 0.459-0.191 0.215-0.939-0.247-0.746-1.679 0.702-3.541 0.988-5.349 0.782-0.493-0.057-0.654 0.713-0.158 0.771z">
            </path>
            <path fill="none" stroke="#131313" stroke-width="0.831" stroke-miterlimit="10" stroke-linecap="butt"
                stroke-linejoin="miter" style="stroke: var(--color4, #131313)"
                d="M19.259 25.719c-6.323 2.157-12.479 0.79-13.752-3.055"></path>
            <path fill="none" stroke="#131313" stroke-width="0.831" stroke-miterlimit="10" stroke-linecap="butt"
                stroke-linejoin="miter" style="stroke: var(--color4, #131313)"
                d="M28.402 14.853c1.272 3.845-2.821 8.71-9.144 10.867M4.262 23.434l2.406-1.789M27.36 15l2.043-0.419">
            </path>
        </symbol>
        <symbol id="hero-orange-smile_m-2x" viewBox="0 0 33 32">
            <path fill="#fcfcfc" style="fill: var(--color3, #fcfcfc)"
                d="M12.569 20.739c1.387-0.473 1.894-2.72 1.133-5.020-0.761-2.299-2.502-3.78-3.889-3.308-1.386 0.473-1.893 2.721-1.132 5.020s2.502 3.781 3.889 3.308z">
            </path>
            <path fill="#131313" style="fill: var(--color4, #131313)"
                d="M9.875 12.597c1.261-0.43 2.929 1.027 3.643 3.183s0.251 4.341-1.010 4.771c-1.261 0.43-2.929-1.027-3.643-3.183s-0.25-4.342 1.011-4.772zM9.751 12.224c-1.487 0.507-2.049 2.867-1.254 5.27 0.796 2.403 2.647 3.939 4.134 3.431s2.049-2.867 1.254-5.27-2.645-3.939-4.134-3.431z">
            </path>
            <path fill="#fcfcfc" style="fill: var(--color3, #fcfcfc)"
                d="M21.017 17.857c1.387-0.473 1.894-2.72 1.133-5.020-0.761-2.299-2.502-3.781-3.888-3.308s-1.894 2.721-1.133 5.020c0.761 2.3 2.502 3.781 3.889 3.308z">
            </path>
            <path fill="#131313" style="fill: var(--color4, #131313)"
                d="M18.323 9.715c1.261-0.43 2.929 1.027 3.643 3.183s0.251 4.341-1.010 4.772c-1.261 0.43-2.929-1.027-3.643-3.184s-0.25-4.341 1.010-4.771zM18.199 9.342c-1.487 0.507-2.049 2.867-1.254 5.27 0.796 2.402 2.647 3.938 4.134 3.431s2.050-2.867 1.254-5.27c-0.795-2.402-2.645-3.939-4.134-3.431zM11.868 18.626c0.778-0.265 1.068-1.51 0.648-2.78s-1.391-2.085-2.169-1.819c-0.778 0.265-1.068 1.51-0.648 2.78s1.391 2.085 2.169 1.819z">
            </path>
            <path fill="#131313" style="fill: var(--color4, #131313)"
                d="M10.366 14.089c0.743-0.254 1.679 0.543 2.088 1.778s0.137 2.443-0.606 2.697c-0.743 0.254-1.679-0.543-2.088-1.778s-0.136-2.444 0.606-2.697zM10.325 13.964c-0.812 0.277-1.119 1.559-0.687 2.863s1.439 2.137 2.251 1.86c0.812-0.277 1.119-1.559 0.688-2.863s-1.439-2.137-2.251-1.86zM20.318 15.743c0.778-0.265 1.068-1.51 0.648-2.78s-1.391-2.085-2.169-1.819-1.068 1.51-0.647 2.78c0.42 1.27 1.391 2.085 2.169 1.819z">
            </path>
            <path fill="#131313" style="fill: var(--color4, #131313)"
                d="M18.817 11.206c0.743-0.253 1.679 0.543 2.088 1.778s0.137 2.443-0.606 2.697c-0.743 0.253-1.679-0.544-2.088-1.778s-0.136-2.444 0.606-2.697zM18.776 11.082c-0.812 0.277-1.119 1.559-0.687 2.863s1.439 2.137 2.251 1.86c0.812-0.277 1.12-1.559 0.688-2.863s-1.439-2.137-2.251-1.86z">
            </path>
            <path fill="#fcfcfc" style="fill: var(--color3, #fcfcfc)"
                d="M10.548 16.655c0.468-0.159 0.681-0.79 0.477-1.407s-0.749-0.989-1.218-0.829c-0.468 0.16-0.681 0.79-0.477 1.407s0.749 0.989 1.218 0.829zM18.911 13.525c0.468-0.159 0.681-0.79 0.477-1.407s-0.749-0.989-1.218-0.829c-0.468 0.159-0.681 0.79-0.477 1.407s0.749 0.989 1.218 0.829z">
            </path>
            <path fill="#131313" style="fill: var(--color4, #131313)"
                d="M7.543 10.918c0.206-0.755 0.573-1.532 1.321-1.86 0.696-0.305 1.476-0.114 2.145 0.174 0.458 0.198 0.806-0.506 0.345-0.704-0.89-0.385-1.912-0.598-2.831-0.18-0.967 0.441-1.468 1.419-1.738 2.409-0.134 0.489 0.625 0.645 0.759 0.16zM16.456 7.099c1.943 0.221 3.943-0.050 5.753-0.807 0.459-0.191 0.215-0.939-0.247-0.746-1.679 0.702-3.541 0.988-5.349 0.782-0.493-0.057-0.654 0.713-0.158 0.771z">
            </path>
            <path fill="none" stroke="#131313" stroke-width="0.831" stroke-miterlimit="10" stroke-linecap="butt"
                stroke-linejoin="miter" style="stroke: var(--color4, #131313)"
                d="M19.259 25.719c-6.323 2.157-12.479 0.79-13.752-3.055"></path>
            <path fill="none" stroke="#131313" stroke-width="0.831" stroke-miterlimit="10" stroke-linecap="butt"
                stroke-linejoin="miter" style="stroke: var(--color4, #131313)"
                d="M28.402 14.853c1.272 3.845-2.821 8.71-9.144 10.867M4.262 23.434l2.406-1.789M27.36 15l2.043-0.419">
            </path>
        </symbol>
        <symbol id="hero-orange-smile_t-1x" viewBox="0 0 34 32">
            <path fill="#fff" style="fill: var(--color1, #fff)"
                d="M12.929 20.853c1.437-0.483 1.962-2.781 1.173-5.132s-2.594-3.865-4.030-3.381c-1.437 0.484-1.962 2.781-1.173 5.132s2.593 3.865 4.030 3.381z">
            </path>
            <path fill="#000" style="fill: var(--color2, #000)"
                d="M10.135 12.53c1.307-0.44 3.036 1.050 3.776 3.255s0.26 4.437-1.047 4.877c-1.307 0.44-3.036-1.050-3.776-3.255s-0.259-4.438 1.047-4.877zM10.007 12.149c-1.542 0.519-2.124 2.931-1.3 5.386s2.743 4.026 4.285 3.508c1.542-0.519 2.124-2.931 1.3-5.386s-2.742-4.027-4.285-3.508z">
            </path>
            <path fill="#fff" style="fill: var(--color1, #fff)"
                d="M21.685 17.907c1.437-0.483 1.962-2.781 1.173-5.132s-2.593-3.865-4.030-3.381c-1.437 0.484-1.962 2.781-1.173 5.132s2.594 3.865 4.030 3.381z">
            </path>
            <path fill="#000" style="fill: var(--color2, #000)"
                d="M18.892 9.584c1.307-0.44 3.036 1.050 3.776 3.255s0.261 4.437-1.047 4.877c-1.307 0.44-3.036-1.050-3.776-3.255s-0.259-4.438 1.047-4.877zM18.764 9.203c-1.542 0.519-2.123 2.931-1.299 5.386s2.743 4.027 4.285 3.508 2.124-2.931 1.3-5.386c-0.825-2.456-2.742-4.027-4.285-3.508zM12.203 18.692c0.806-0.271 1.106-1.543 0.67-2.842s-1.442-2.131-2.248-1.859-1.106 1.543-0.67 2.842c0.436 1.298 1.442 2.131 2.248 1.859z">
            </path>
            <path fill="#000" style="fill: var(--color2, #000)"
                d="M10.647 14.055c0.77-0.259 1.74 0.556 2.164 1.818s0.142 2.497-0.628 2.757-1.74-0.556-2.164-1.818c-0.423-1.261-0.14-2.498 0.629-2.757zM10.604 13.928c-0.841 0.283-1.16 1.594-0.713 2.926s1.492 2.185 2.333 1.902c0.841-0.283 1.16-1.594 0.713-2.926s-1.492-2.185-2.333-1.902zM20.96 15.746c0.806-0.271 1.106-1.543 0.67-2.842s-1.442-2.131-2.248-1.859c-0.806 0.271-1.106 1.543-0.67 2.841s1.442 2.131 2.248 1.859z">
            </path>
            <path fill="#000" style="fill: var(--color2, #000)"
                d="M19.404 11.109c0.77-0.259 1.74 0.555 2.164 1.817s0.142 2.498-0.628 2.757c-0.77 0.259-1.74-0.556-2.164-1.817s-0.14-2.498 0.629-2.757zM19.361 10.982c-0.841 0.283-1.16 1.594-0.712 2.926s1.492 2.185 2.333 1.902 1.16-1.594 0.713-2.926c-0.447-1.333-1.492-2.185-2.333-1.902z">
            </path>
            <path fill="#fff" style="fill: var(--color1, #fff)"
                d="M10.833 16.679c0.485-0.163 0.706-0.807 0.494-1.439s-0.777-1.011-1.262-0.848c-0.485 0.163-0.706 0.807-0.494 1.439s0.777 1.011 1.262 0.848zM19.504 13.479c0.485-0.163 0.706-0.807 0.494-1.439s-0.777-1.011-1.262-0.848c-0.485 0.163-0.706 0.807-0.494 1.439s0.777 1.011 1.262 0.848z">
            </path>
            <path fill="#000" style="fill: var(--color2, #000)"
                d="M7.72 10.814c0.214-0.772 0.594-1.566 1.369-1.901 0.722-0.312 1.53-0.116 2.224 0.178 0.475 0.202 0.835-0.517 0.357-0.72-0.923-0.394-1.982-0.611-2.935-0.184-1.002 0.45-1.522 1.451-1.802 2.463-0.138 0.501 0.648 0.66 0.787 0.164zM16.959 6.91c2.014 0.226 4.088-0.051 5.963-0.824 0.476-0.195 0.223-0.96-0.256-0.762-1.741 0.717-3.67 1.010-5.544 0.799-0.511-0.059-0.678 0.729-0.164 0.788z">
            </path>
            <path fill="none" stroke="#000" stroke-width="0.5656" stroke-miterlimit="10" stroke-linecap="butt"
                stroke-linejoin="miter" style="stroke: var(--color2, #000)"
                d="M19.864 25.943c-6.554 2.205-12.936 0.807-14.255-3.123"></path>
            <path fill="none" stroke="#000" stroke-width="0.5656" stroke-miterlimit="10" stroke-linecap="butt"
                stroke-linejoin="miter" style="stroke: var(--color2, #000)"
                d="M29.341 14.836c1.319 3.93-2.924 8.903-9.478 11.107M4.32 23.608l2.493-1.829M28.262 14.987l2.116-0.429">
            </path>
        </symbol>
        <symbol id="hero-orange-smile_t-2x" viewBox="0 0 34 32">
            <path fill="#fff" style="fill: var(--color1, #fff)"
                d="M12.929 20.853c1.437-0.483 1.962-2.781 1.173-5.132s-2.594-3.865-4.030-3.381c-1.437 0.484-1.962 2.781-1.173 5.132s2.593 3.865 4.030 3.381z">
            </path>
            <path fill="#000" style="fill: var(--color2, #000)"
                d="M10.135 12.53c1.307-0.44 3.036 1.050 3.776 3.255s0.26 4.437-1.047 4.877c-1.307 0.44-3.036-1.050-3.776-3.255s-0.259-4.438 1.047-4.877zM10.007 12.149c-1.542 0.519-2.124 2.931-1.3 5.386s2.743 4.026 4.285 3.508c1.542-0.519 2.124-2.931 1.3-5.386s-2.742-4.027-4.285-3.508z">
            </path>
            <path fill="#fff" style="fill: var(--color1, #fff)"
                d="M21.685 17.907c1.437-0.483 1.962-2.781 1.173-5.132s-2.593-3.865-4.030-3.381c-1.437 0.484-1.962 2.781-1.173 5.132s2.594 3.865 4.030 3.381z">
            </path>
            <path fill="#000" style="fill: var(--color2, #000)"
                d="M18.892 9.584c1.307-0.44 3.036 1.050 3.776 3.255s0.261 4.437-1.047 4.877c-1.307 0.44-3.036-1.050-3.776-3.255s-0.259-4.438 1.047-4.877zM18.764 9.203c-1.542 0.519-2.123 2.931-1.299 5.386s2.743 4.027 4.285 3.508 2.124-2.931 1.3-5.386c-0.825-2.456-2.742-4.027-4.285-3.508zM12.203 18.692c0.806-0.271 1.106-1.543 0.67-2.842s-1.442-2.131-2.248-1.859-1.106 1.543-0.67 2.842c0.436 1.298 1.442 2.131 2.248 1.859z">
            </path>
            <path fill="#000" style="fill: var(--color2, #000)"
                d="M10.647 14.055c0.77-0.259 1.74 0.556 2.164 1.818s0.142 2.497-0.628 2.757-1.74-0.556-2.164-1.818c-0.423-1.261-0.14-2.498 0.629-2.757zM10.604 13.928c-0.841 0.283-1.16 1.594-0.713 2.926s1.492 2.185 2.333 1.902c0.841-0.283 1.16-1.594 0.713-2.926s-1.492-2.185-2.333-1.902zM20.96 15.746c0.806-0.271 1.106-1.543 0.67-2.842s-1.442-2.131-2.248-1.859c-0.806 0.271-1.106 1.543-0.67 2.841s1.442 2.131 2.248 1.859z">
            </path>
            <path fill="#000" style="fill: var(--color2, #000)"
                d="M19.404 11.109c0.77-0.259 1.74 0.555 2.164 1.817s0.142 2.498-0.628 2.757c-0.77 0.259-1.74-0.556-2.164-1.817s-0.14-2.498 0.629-2.757zM19.361 10.982c-0.841 0.283-1.16 1.594-0.712 2.926s1.492 2.185 2.333 1.902 1.16-1.594 0.713-2.926c-0.447-1.333-1.492-2.185-2.333-1.902z">
            </path>
            <path fill="#fff" style="fill: var(--color1, #fff)"
                d="M10.833 16.679c0.485-0.163 0.706-0.807 0.494-1.439s-0.777-1.011-1.262-0.848c-0.485 0.163-0.706 0.807-0.494 1.439s0.777 1.011 1.262 0.848zM19.504 13.479c0.485-0.163 0.706-0.807 0.494-1.439s-0.777-1.011-1.262-0.848c-0.485 0.163-0.706 0.807-0.494 1.439s0.777 1.011 1.262 0.848z">
            </path>
            <path fill="#000" style="fill: var(--color2, #000)"
                d="M7.72 10.814c0.214-0.772 0.594-1.566 1.369-1.901 0.722-0.312 1.53-0.116 2.224 0.178 0.475 0.202 0.835-0.517 0.357-0.72-0.923-0.394-1.982-0.611-2.935-0.184-1.002 0.45-1.522 1.451-1.802 2.463-0.138 0.501 0.648 0.66 0.787 0.164zM16.959 6.91c2.014 0.226 4.088-0.051 5.963-0.824 0.476-0.195 0.223-0.96-0.256-0.762-1.741 0.717-3.67 1.010-5.544 0.799-0.511-0.059-0.678 0.729-0.164 0.788z">
            </path>
            <path fill="none" stroke="#000" stroke-width="0.5656" stroke-miterlimit="10" stroke-linecap="butt"
                stroke-linejoin="miter" style="stroke: var(--color2, #000)"
                d="M19.864 25.943c-6.554 2.205-12.936 0.807-14.255-3.123"></path>
            <path fill="none" stroke="#000" stroke-width="0.5656" stroke-miterlimit="10" stroke-linecap="butt"
                stroke-linejoin="miter" style="stroke: var(--color2, #000)"
                d="M29.341 14.836c1.319 3.93-2.924 8.903-9.478 11.107M4.32 23.608l2.493-1.829M28.262 14.987l2.116-0.429">
            </path>
        </symbol>
        <symbol id="hero-pink-smile_d-1x" viewBox="0 0 34 32">
            <path fill="#fff" style="fill: var(--color1, #fff)"
                d="M12.317 16.245c1.17 0.781 3.208-0.060 4.552-1.878s1.485-3.925 0.315-4.706c-1.17-0.781-3.208 0.060-4.552 1.878s-1.485 3.925-0.315 4.706z">
            </path>
            <path fill="#000" style="fill: var(--color2, #000)"
                d="M17.075 9.808c1.064 0.71 0.899 2.75-0.361 4.455s-3.223 2.545-4.288 1.834c-1.064-0.711-0.899-2.75 0.361-4.455s3.224-2.544 4.288-1.834zM17.292 9.513c-1.256-0.838-3.412 0.023-4.816 1.922s-1.524 4.119-0.269 4.957c1.256 0.838 3.412-0.023 4.816-1.922s1.525-4.118 0.269-4.957z">
            </path>
            <path fill="#fff" style="fill: var(--color1, #fff)"
                d="M19.453 21.004c1.17 0.781 3.208-0.060 4.552-1.878s1.485-3.925 0.315-4.706c-1.17-0.781-3.208 0.060-4.552 1.878s-1.485 3.925-0.315 4.706z">
            </path>
            <path fill="#000" style="fill: var(--color2, #000)"
                d="M24.211 14.568c1.064 0.71 0.899 2.75-0.361 4.455s-3.223 2.545-4.288 1.834c-1.065-0.71-0.899-2.75 0.361-4.455s3.224-2.544 4.288-1.834zM24.429 14.273c-1.256-0.838-3.412 0.022-4.816 1.922s-1.524 4.119-0.269 4.957 3.412-0.022 4.816-1.922c1.404-1.9 1.525-4.118 0.269-4.957zM14.691 13.867c0.656 0.438 1.79-0.021 2.532-1.025s0.812-2.173 0.155-2.611c-0.656-0.438-1.79 0.021-2.532 1.025s-0.812 2.173-0.155 2.611z">
            </path>
            <path fill="#000" style="fill: var(--color2, #000)"
                d="M17.343 10.281c0.627 0.419 0.551 1.552-0.171 2.528s-1.817 1.429-2.444 1.010-0.551-1.552 0.171-2.528c0.721-0.976 1.818-1.428 2.444-1.010zM17.415 10.182c-0.685-0.457-1.858 0.009-2.62 1.040s-0.825 2.238-0.14 2.695c0.685 0.457 1.858-0.009 2.62-1.040s0.825-2.238 0.14-2.695zM21.931 18.696c0.656 0.438 1.79-0.021 2.532-1.025s0.812-2.173 0.155-2.611c-0.656-0.438-1.79 0.021-2.532 1.025s-0.812 2.173-0.155 2.611z">
            </path>
            <path fill="#000" style="fill: var(--color2, #000)"
                d="M24.582 15.109c0.627 0.419 0.551 1.552-0.171 2.528s-1.817 1.429-2.444 1.010c-0.627-0.419-0.551-1.552 0.171-2.528s1.818-1.428 2.444-1.010zM24.655 15.011c-0.685-0.457-1.858 0.009-2.62 1.039s-0.825 2.238-0.14 2.695c0.685 0.457 1.858-0.009 2.62-1.040s0.825-2.238 0.14-2.695z">
            </path>
            <path fill="#fff" style="fill: var(--color1, #fff)"
                d="M14.339 13.412c0.307 0.205 0.784 0.063 1.065-0.317s0.259-0.854-0.048-1.059c-0.307-0.205-0.784-0.063-1.064 0.317s-0.26 0.854 0.047 1.059zM21.61 18.408c0.307 0.205 0.784 0.063 1.064-0.317s0.26-0.854-0.047-1.059c-0.307-0.205-0.784-0.063-1.065 0.317s-0.259 0.854 0.048 1.059z">
            </path>
            <path fill="#000" style="fill: var(--color2, #000)"
                d="M16.142 6.868c1.447 0.049 2.734 0.706 3.587 1.816 0.288 0.375 0.873-0.086 0.587-0.459-0.964-1.256-2.473-2.019-4.109-2.075-0.487-0.016-0.555 0.703-0.065 0.718zM24.553 11.744c1.364 0.467 2.371 1.472 2.828 2.774 0.155 0.44 0.843 0.135 0.69-0.301-0.519-1.478-1.723-2.627-3.262-3.153-0.459-0.156-0.717 0.522-0.256 0.68z">
            </path>
            <path fill="none" stroke="#000" stroke-width="0.4344" stroke-miterlimit="10" stroke-linecap="butt"
                stroke-linejoin="miter" style="stroke: var(--color2, #000)"
                d="M12.429 22.993c-5.341-3.562-7.85-8.913-5.605-11.953M26.164 23.939c-2.245 3.040-8.394 2.616-13.735-0.946M5.505 10.527l2.783 0.829M25.445 23.24l1.51 1.3">
            </path>
            <path fill="#000" stroke="#000" stroke-width="0.4344" stroke-miterlimit="10" stroke-linecap="butt"
                stroke-linejoin="miter" style="fill: var(--color2, #000); stroke: var(--color2, #000)"
                d="M12.595 23.385c0.463-0.352 0.343-1.225-0.267-1.95s-1.481-1.026-1.944-0.674c-0.463 0.352-0.343 1.225 0.267 1.95s1.481 1.027 1.944 0.674z">
            </path>
            <path fill="#000" stroke="#000" stroke-width="0.4344" stroke-miterlimit="10" stroke-linecap="butt"
                stroke-linejoin="miter" style="fill: var(--color2, #000); stroke: var(--color2, #000)"
                d="M12.091 23.868c0.942 0.629 1.788 1.028 1.888 0.892s-0.583-0.755-1.525-1.384-1.788-1.028-1.888-0.892c-0.1 0.136 0.583 0.755 1.525 1.384z">
            </path>
            <path fill="#000" stroke="#000" stroke-width="0.4344" stroke-miterlimit="10" stroke-linecap="butt"
                stroke-linejoin="miter" style="fill: var(--color2, #000); stroke: var(--color2, #000)"
                d="M13.63 24.725c0.889 0.384 1.809 0.279 2.055-0.234s-0.277-1.24-1.166-1.624c-0.889-0.384-1.809-0.279-2.055 0.234s0.277 1.24 1.166 1.624z">
            </path>
        </symbol>
        <symbol id="hero-pink-smile_d-2x" viewBox="0 0 34 32">
            <path fill="#fff" style="fill: var(--color1, #fff)"
                d="M12.317 16.245c1.17 0.781 3.208-0.060 4.552-1.878s1.485-3.925 0.315-4.706c-1.17-0.781-3.208 0.060-4.552 1.878s-1.485 3.925-0.315 4.706z">
            </path>
            <path fill="#000" style="fill: var(--color2, #000)"
                d="M17.075 9.808c1.064 0.71 0.899 2.75-0.361 4.455s-3.223 2.545-4.288 1.834c-1.064-0.711-0.899-2.75 0.361-4.455s3.224-2.544 4.288-1.834zM17.292 9.513c-1.256-0.838-3.412 0.023-4.816 1.922s-1.524 4.119-0.269 4.957c1.256 0.838 3.412-0.023 4.816-1.922s1.525-4.118 0.269-4.957z">
            </path>
            <path fill="#fff" style="fill: var(--color1, #fff)"
                d="M19.453 21.004c1.17 0.781 3.208-0.060 4.552-1.878s1.485-3.925 0.315-4.706c-1.17-0.781-3.208 0.060-4.552 1.878s-1.485 3.925-0.315 4.706z">
            </path>
            <path fill="#000" style="fill: var(--color2, #000)"
                d="M24.211 14.568c1.064 0.71 0.899 2.75-0.361 4.455s-3.223 2.545-4.288 1.834c-1.065-0.71-0.899-2.75 0.361-4.455s3.224-2.544 4.288-1.834zM24.429 14.273c-1.256-0.838-3.412 0.022-4.816 1.922s-1.524 4.119-0.269 4.957 3.412-0.022 4.816-1.922c1.404-1.9 1.525-4.118 0.269-4.957zM14.691 13.867c0.656 0.438 1.79-0.021 2.532-1.025s0.812-2.173 0.155-2.611c-0.656-0.438-1.79 0.021-2.532 1.025s-0.812 2.173-0.155 2.611z">
            </path>
            <path fill="#000" style="fill: var(--color2, #000)"
                d="M17.343 10.281c0.627 0.419 0.551 1.552-0.171 2.528s-1.817 1.429-2.444 1.010-0.551-1.552 0.171-2.528c0.721-0.976 1.818-1.428 2.444-1.010zM17.415 10.182c-0.685-0.457-1.858 0.009-2.62 1.040s-0.825 2.238-0.14 2.695c0.685 0.457 1.858-0.009 2.62-1.040s0.825-2.238 0.14-2.695zM21.931 18.696c0.656 0.438 1.79-0.021 2.532-1.025s0.812-2.173 0.155-2.611c-0.656-0.438-1.79 0.021-2.532 1.025s-0.812 2.173-0.155 2.611z">
            </path>
            <path fill="#000" style="fill: var(--color2, #000)"
                d="M24.582 15.109c0.627 0.419 0.551 1.552-0.171 2.528s-1.817 1.429-2.444 1.010c-0.627-0.419-0.551-1.552 0.171-2.528s1.818-1.428 2.444-1.010zM24.655 15.011c-0.685-0.457-1.858 0.009-2.62 1.039s-0.825 2.238-0.14 2.695c0.685 0.457 1.858-0.009 2.62-1.040s0.825-2.238 0.14-2.695z">
            </path>
            <path fill="#fff" style="fill: var(--color1, #fff)"
                d="M14.339 13.412c0.307 0.205 0.784 0.063 1.065-0.317s0.259-0.854-0.048-1.059c-0.307-0.205-0.784-0.063-1.064 0.317s-0.26 0.854 0.047 1.059zM21.61 18.408c0.307 0.205 0.784 0.063 1.064-0.317s0.26-0.854-0.047-1.059c-0.307-0.205-0.784-0.063-1.065 0.317s-0.259 0.854 0.048 1.059z">
            </path>
            <path fill="#000" style="fill: var(--color2, #000)"
                d="M16.142 6.868c1.447 0.049 2.734 0.706 3.587 1.816 0.288 0.375 0.873-0.086 0.587-0.459-0.964-1.256-2.473-2.019-4.109-2.075-0.487-0.016-0.555 0.703-0.065 0.718zM24.553 11.744c1.364 0.467 2.371 1.472 2.828 2.774 0.155 0.44 0.843 0.135 0.69-0.301-0.519-1.478-1.723-2.627-3.262-3.153-0.459-0.156-0.717 0.522-0.256 0.68z">
            </path>
            <path fill="none" stroke="#000" stroke-width="0.4344" stroke-miterlimit="10" stroke-linecap="butt"
                stroke-linejoin="miter" style="stroke: var(--color2, #000)"
                d="M12.429 22.993c-5.341-3.562-7.85-8.913-5.605-11.953M26.164 23.939c-2.245 3.040-8.394 2.616-13.735-0.946M5.505 10.527l2.783 0.829M25.445 23.24l1.51 1.3">
            </path>
            <path fill="#000" stroke="#000" stroke-width="0.4344" stroke-miterlimit="10" stroke-linecap="butt"
                stroke-linejoin="miter" style="fill: var(--color2, #000); stroke: var(--color2, #000)"
                d="M12.595 23.385c0.463-0.352 0.343-1.225-0.267-1.95s-1.481-1.026-1.944-0.674c-0.463 0.352-0.343 1.225 0.267 1.95s1.481 1.027 1.944 0.674z">
            </path>
            <path fill="#000" stroke="#000" stroke-width="0.4344" stroke-miterlimit="10" stroke-linecap="butt"
                stroke-linejoin="miter" style="fill: var(--color2, #000); stroke: var(--color2, #000)"
                d="M12.091 23.868c0.942 0.629 1.788 1.028 1.888 0.892s-0.583-0.755-1.525-1.384-1.788-1.028-1.888-0.892c-0.1 0.136 0.583 0.755 1.525 1.384z">
            </path>
            <path fill="#000" stroke="#000" stroke-width="0.4344" stroke-miterlimit="10" stroke-linecap="butt"
                stroke-linejoin="miter" style="fill: var(--color2, #000); stroke: var(--color2, #000)"
                d="M13.63 24.725c0.889 0.384 1.809 0.279 2.055-0.234s-0.277-1.24-1.166-1.624c-0.889-0.384-1.809-0.279-2.055 0.234s0.277 1.24 1.166 1.624z">
            </path>
        </symbol>
        <symbol id="hero-pink-smile_m-1x" viewBox="0 0 32 32">
            <path fill="#fcfcfc" style="fill: var(--color3, #fcfcfc)"
                d="M11.812 15.692c1.095 0.78 3.001-0.060 4.257-1.876s1.386-3.922 0.291-4.702c-1.095-0.78-3.001 0.060-4.257 1.876s-1.386 3.922-0.291 4.702z">
            </path>
            <path fill="#131313" style="fill: var(--color4, #131313)"
                d="M16.257 9.26c0.996 0.71 0.844 2.748-0.334 4.452s-3.013 2.543-4.010 1.833c-0.997-0.71-0.844-2.748 0.334-4.452s3.015-2.542 4.010-1.833zM16.461 8.965c-1.176-0.837-3.192 0.022-4.504 1.921s-1.423 4.116-0.248 4.953c1.176 0.837 3.192-0.022 4.504-1.921s1.424-4.115 0.248-4.953z">
            </path>
            <path fill="#fcfcfc" style="fill: var(--color3, #fcfcfc)"
                d="M18.486 20.447c1.095 0.78 3.001-0.060 4.256-1.876s1.386-3.922 0.291-4.702c-1.095-0.78-3.001 0.060-4.257 1.876s-1.386 3.922-0.291 4.702z">
            </path>
            <path fill="#131313" style="fill: var(--color4, #131313)"
                d="M22.931 14.015c0.996 0.71 0.844 2.748-0.334 4.452s-3.014 2.543-4.010 1.833-0.844-2.748 0.334-4.452c1.178-1.704 3.015-2.542 4.010-1.833zM23.135 13.721c-1.175-0.837-3.192 0.022-4.504 1.921s-1.423 4.116-0.248 4.953 3.192-0.023 4.504-1.921c1.312-1.898 1.424-4.115 0.248-4.953zM14.032 13.317c0.614 0.438 1.674-0.021 2.368-1.024s0.758-2.171 0.143-2.609c-0.615-0.438-1.675 0.020-2.368 1.024s-0.758 2.171-0.143 2.609z">
            </path>
            <path fill="#131313" style="fill: var(--color4, #131313)"
                d="M16.509 9.732c0.587 0.418 0.517 1.551-0.158 2.525s-1.699 1.428-2.286 1.010-0.516-1.551 0.158-2.526c0.674-0.975 1.699-1.427 2.285-1.009zM16.577 9.634c-0.641-0.457-1.738 0.008-2.45 1.039s-0.77 2.236-0.129 2.693c0.642 0.457 1.739-0.008 2.45-1.039s0.77-2.236 0.129-2.693zM20.802 18.141c0.614 0.438 1.674-0.020 2.368-1.024s0.758-2.171 0.143-2.609c-0.614-0.438-1.674 0.020-2.368 1.024s-0.758 2.171-0.143 2.609z">
            </path>
            <path fill="#131313" style="fill: var(--color4, #131313)"
                d="M23.28 14.557c0.587 0.418 0.516 1.551-0.158 2.525s-1.698 1.428-2.285 1.010-0.517-1.551 0.158-2.526c0.674-0.975 1.699-1.427 2.286-1.009zM23.348 14.458c-0.642-0.457-1.739 0.008-2.45 1.039s-0.77 2.236-0.129 2.693c0.641 0.457 1.738-0.008 2.45-1.039s0.77-2.236 0.129-2.693z">
            </path>
            <path fill="#fcfcfc" style="fill: var(--color3, #fcfcfc)"
                d="M13.701 12.861c0.288 0.205 0.733 0.063 0.996-0.317s0.242-0.854-0.046-1.058c-0.287-0.204-0.733-0.063-0.995 0.317s-0.242 0.854 0.045 1.058zM20.501 17.853c0.288 0.205 0.733 0.063 0.995-0.317s0.242-0.853-0.045-1.058c-0.288-0.204-0.733-0.063-0.995 0.317s-0.242 0.854 0.045 1.058z">
            </path>
            <path fill="#131313" style="fill: var(--color4, #131313)"
                d="M15.386 6.322c1.353 0.050 2.557 0.706 3.356 1.814 0.27 0.374 0.816-0.085 0.547-0.458-0.903-1.253-2.315-2.016-3.844-2.072-0.455-0.016-0.517 0.701-0.059 0.717zM23.254 11.195c1.276 0.466 2.219 1.47 2.648 2.769 0.145 0.439 0.788 0.135 0.645-0.3-0.494-1.468-1.607-2.611-3.020-3.137l-0.035-0.011c-0.429-0.156-0.669 0.521-0.238 0.679z">
            </path>
            <path fill="none" stroke="#131313" stroke-width="0.6207" stroke-miterlimit="10" stroke-linecap="butt"
                stroke-linejoin="miter" style="stroke: var(--color4, #131313)"
                d="M11.914 22.434c-4.994-3.559-7.341-8.906-5.241-11.943"></path>
            <path fill="none" stroke="#131313" stroke-width="0.6207" stroke-miterlimit="10" stroke-linecap="butt"
                stroke-linejoin="miter" style="stroke: var(--color4, #131313)"
                d="M24.759 23.379c-2.1 3.037-7.85 2.614-12.845-0.945M5.438 9.978l2.603 0.829M24.086 22.681l1.411 1.299">
            </path>
            <path fill="none" stroke="#131313" stroke-width="0.4141" stroke-miterlimit="10" stroke-linecap="butt"
                stroke-linejoin="miter" style="stroke: var(--color4, #131313)"
                d="M14.343 6.949c-0.2 0.32-0.32 0.709-0.321 1.126v0c0 0.002 0 0.003 0 0.005 0 0.372 0.095 0.722 0.261 1.027l-0.006-0.011M14.73 7.293c-0.093 0.248-0.147 0.534-0.147 0.832 0 0.005 0 0.011 0 0.017v-0.001c0 0.37 0.076 0.645 0.116 0.768M15.331 7.775c-0.098 0.168-0.156 0.369-0.156 0.584 0 0 0 0.001 0 0.001v-0c0 0.255 0.081 0.445 0.125 0.53M25.816 14.977c-0.239 0.308-0.555 0.546-0.92 0.685l-0.014 0.005c-0.212 0.081-0.457 0.127-0.712 0.127-0.113 0-0.224-0.009-0.332-0.027l0.012 0.002M25.368 14.725c-0.095 0.083-0.343 0.283-0.736 0.428-0.222 0.086-0.478 0.14-0.746 0.151l-0.005 0M24.716 14.316c-0.211 0.256-0.528 0.418-0.883 0.418-0.049 0-0.098-0.003-0.145-0.009l0.006 0.001">
            </path>
            <path fill="#131313" stroke="#131313" stroke-width="0.6207" stroke-miterlimit="10" stroke-linecap="butt"
                stroke-linejoin="miter" style="fill: var(--color4, #131313); stroke: var(--color4, #131313)"
                d="M12.069 22.826c0.433-0.352 0.321-1.224-0.25-1.948s-1.385-1.026-1.818-0.674-0.321 1.224 0.25 1.948c0.571 0.724 1.385 1.026 1.818 0.674z">
            </path>
            <path fill="#131313" stroke="#131313" stroke-width="0.6207" stroke-miterlimit="10" stroke-linecap="butt"
                stroke-linejoin="miter" style="fill: var(--color4, #131313); stroke: var(--color4, #131313)"
                d="M11.599 23.308c0.881 0.628 1.672 1.027 1.766 0.892s-0.545-0.755-1.427-1.383c-0.881-0.628-1.672-1.027-1.765-0.892s0.545 0.755 1.427 1.383z">
            </path>
            <path fill="#131313" stroke="#131313" stroke-width="0.6207" stroke-miterlimit="10" stroke-linecap="butt"
                stroke-linejoin="miter" style="fill: var(--color4, #131313); stroke: var(--color4, #131313)"
                d="M13.038 24.165c0.832 0.384 1.692 0.279 1.922-0.234s-0.259-1.24-1.091-1.623c-0.832-0.384-1.692-0.279-1.922 0.234s0.259 1.24 1.091 1.623z">
            </path>
        </symbol>
        <symbol id="hero-pink-smile_m-2x" viewBox="0 0 32 32">
            <path fill="#fcfcfc" style="fill: var(--color3, #fcfcfc)"
                d="M11.812 15.692c1.095 0.78 3.001-0.060 4.257-1.876s1.386-3.922 0.291-4.702c-1.095-0.78-3.001 0.060-4.257 1.876s-1.386 3.922-0.291 4.702z">
            </path>
            <path fill="#131313" style="fill: var(--color4, #131313)"
                d="M16.257 9.26c0.996 0.71 0.844 2.748-0.334 4.452s-3.013 2.543-4.010 1.833c-0.997-0.71-0.844-2.748 0.334-4.452s3.015-2.542 4.010-1.833zM16.461 8.965c-1.176-0.837-3.192 0.022-4.504 1.921s-1.423 4.116-0.248 4.953c1.176 0.837 3.192-0.022 4.504-1.921s1.424-4.115 0.248-4.953z">
            </path>
            <path fill="#fcfcfc" style="fill: var(--color3, #fcfcfc)"
                d="M18.486 20.447c1.095 0.78 3.001-0.060 4.256-1.876s1.386-3.922 0.291-4.702c-1.095-0.78-3.001 0.060-4.257 1.876s-1.386 3.922-0.291 4.702z">
            </path>
            <path fill="#131313" style="fill: var(--color4, #131313)"
                d="M22.931 14.015c0.996 0.71 0.844 2.748-0.334 4.452s-3.014 2.543-4.010 1.833-0.844-2.748 0.334-4.452c1.178-1.704 3.015-2.542 4.010-1.833zM23.135 13.721c-1.175-0.837-3.192 0.022-4.504 1.921s-1.423 4.116-0.248 4.953 3.192-0.023 4.504-1.921c1.312-1.898 1.424-4.115 0.248-4.953zM14.032 13.317c0.614 0.438 1.674-0.021 2.368-1.024s0.758-2.171 0.143-2.609c-0.615-0.438-1.675 0.020-2.368 1.024s-0.758 2.171-0.143 2.609z">
            </path>
            <path fill="#131313" style="fill: var(--color4, #131313)"
                d="M16.509 9.732c0.587 0.418 0.517 1.551-0.158 2.525s-1.699 1.428-2.286 1.010-0.516-1.551 0.158-2.526c0.674-0.975 1.699-1.427 2.285-1.009zM16.577 9.634c-0.641-0.457-1.738 0.008-2.45 1.039s-0.77 2.236-0.129 2.693c0.642 0.457 1.739-0.008 2.45-1.039s0.77-2.236 0.129-2.693zM20.802 18.141c0.614 0.438 1.674-0.020 2.368-1.024s0.758-2.171 0.143-2.609c-0.614-0.438-1.674 0.020-2.368 1.024s-0.758 2.171-0.143 2.609z">
            </path>
            <path fill="#131313" style="fill: var(--color4, #131313)"
                d="M23.28 14.557c0.587 0.418 0.516 1.551-0.158 2.525s-1.698 1.428-2.285 1.010-0.517-1.551 0.158-2.526c0.674-0.975 1.699-1.427 2.286-1.009zM23.348 14.458c-0.642-0.457-1.739 0.008-2.45 1.039s-0.77 2.236-0.129 2.693c0.641 0.457 1.738-0.008 2.45-1.039s0.77-2.236 0.129-2.693z">
            </path>
            <path fill="#fcfcfc" style="fill: var(--color3, #fcfcfc)"
                d="M13.701 12.861c0.288 0.205 0.733 0.063 0.996-0.317s0.242-0.854-0.046-1.058c-0.287-0.204-0.733-0.063-0.995 0.317s-0.242 0.854 0.045 1.058zM20.501 17.853c0.288 0.205 0.733 0.063 0.995-0.317s0.242-0.853-0.045-1.058c-0.288-0.204-0.733-0.063-0.995 0.317s-0.242 0.854 0.045 1.058z">
            </path>
            <path fill="#131313" style="fill: var(--color4, #131313)"
                d="M15.386 6.322c1.353 0.050 2.557 0.706 3.356 1.814 0.27 0.374 0.816-0.085 0.547-0.458-0.903-1.253-2.315-2.016-3.844-2.072-0.455-0.016-0.517 0.701-0.059 0.717zM23.254 11.195c1.276 0.466 2.219 1.47 2.648 2.769 0.145 0.439 0.788 0.135 0.645-0.3-0.494-1.468-1.607-2.611-3.020-3.137l-0.035-0.011c-0.429-0.156-0.669 0.521-0.238 0.679z">
            </path>
            <path fill="none" stroke="#131313" stroke-width="0.6207" stroke-miterlimit="10" stroke-linecap="butt"
                stroke-linejoin="miter" style="stroke: var(--color4, #131313)"
                d="M11.914 22.434c-4.994-3.559-7.341-8.906-5.241-11.943"></path>
            <path fill="none" stroke="#131313" stroke-width="0.6207" stroke-miterlimit="10" stroke-linecap="butt"
                stroke-linejoin="miter" style="stroke: var(--color4, #131313)"
                d="M24.759 23.379c-2.1 3.037-7.85 2.614-12.845-0.945M5.438 9.978l2.603 0.829M24.086 22.681l1.411 1.299">
            </path>
            <path fill="none" stroke="#131313" stroke-width="0.4141" stroke-miterlimit="10" stroke-linecap="butt"
                stroke-linejoin="miter" style="stroke: var(--color4, #131313)"
                d="M14.343 6.949c-0.2 0.32-0.32 0.709-0.321 1.126v0c0 0.002 0 0.003 0 0.005 0 0.372 0.095 0.722 0.261 1.027l-0.006-0.011M14.73 7.293c-0.093 0.248-0.147 0.534-0.147 0.832 0 0.005 0 0.011 0 0.017v-0.001c0 0.37 0.076 0.645 0.116 0.768M15.331 7.775c-0.098 0.168-0.156 0.369-0.156 0.584 0 0 0 0.001 0 0.001v-0c0 0.255 0.081 0.445 0.125 0.53M25.816 14.977c-0.239 0.308-0.555 0.546-0.92 0.685l-0.014 0.005c-0.212 0.081-0.457 0.127-0.712 0.127-0.113 0-0.224-0.009-0.332-0.027l0.012 0.002M25.368 14.725c-0.095 0.083-0.343 0.283-0.736 0.428-0.222 0.086-0.478 0.14-0.746 0.151l-0.005 0M24.716 14.316c-0.211 0.256-0.528 0.418-0.883 0.418-0.049 0-0.098-0.003-0.145-0.009l0.006 0.001">
            </path>
            <path fill="#131313" stroke="#131313" stroke-width="0.6207" stroke-miterlimit="10" stroke-linecap="butt"
                stroke-linejoin="miter" style="fill: var(--color4, #131313); stroke: var(--color4, #131313)"
                d="M12.069 22.826c0.433-0.352 0.321-1.224-0.25-1.948s-1.385-1.026-1.818-0.674-0.321 1.224 0.25 1.948c0.571 0.724 1.385 1.026 1.818 0.674z">
            </path>
            <path fill="#131313" stroke="#131313" stroke-width="0.6207" stroke-miterlimit="10" stroke-linecap="butt"
                stroke-linejoin="miter" style="fill: var(--color4, #131313); stroke: var(--color4, #131313)"
                d="M11.599 23.308c0.881 0.628 1.672 1.027 1.766 0.892s-0.545-0.755-1.427-1.383c-0.881-0.628-1.672-1.027-1.765-0.892s0.545 0.755 1.427 1.383z">
            </path>
            <path fill="#131313" stroke="#131313" stroke-width="0.6207" stroke-miterlimit="10" stroke-linecap="butt"
                stroke-linejoin="miter" style="fill: var(--color4, #131313); stroke: var(--color4, #131313)"
                d="M13.038 24.165c0.832 0.384 1.692 0.279 1.922-0.234s-0.259-1.24-1.091-1.623c-0.832-0.384-1.692-0.279-1.922 0.234s0.259 1.24 1.091 1.623z">
            </path>
        </symbol>
        <symbol id="hero-pink-smile_t-1x" viewBox="0 0 32 32">
            <path fill="#fff" style="fill: var(--color1, #fff)"
                d="M11.803 15.755c1.11 0.78 3.043-0.060 4.317-1.877s1.406-3.922 0.295-4.702c-1.11-0.78-3.043 0.060-4.317 1.877s-1.406 3.922-0.295 4.702z">
            </path>
            <path fill="#000" style="fill: var(--color2, #000)"
                d="M16.312 9.324c1.010 0.71 0.855 2.748-0.339 4.451s-3.056 2.543-4.066 1.833c-1.010-0.71-0.855-2.748 0.339-4.452s3.057-2.542 4.066-1.833zM16.519 9.029c-1.192-0.837-3.237 0.022-4.567 1.921s-1.443 4.116-0.252 4.953c1.192 0.837 3.236-0.022 4.567-1.921s1.444-4.115 0.252-4.953z">
            </path>
            <path fill="#fff" style="fill: var(--color1, #fff)"
                d="M18.571 20.511c1.11 0.78 3.043-0.060 4.317-1.877s1.406-3.922 0.295-4.702c-1.11-0.78-3.043 0.060-4.317 1.877s-1.406 3.922-0.295 4.702z">
            </path>
            <path fill="#000" style="fill: var(--color2, #000)"
                d="M23.080 14.079c1.010 0.71 0.855 2.748-0.339 4.451s-3.056 2.543-4.066 1.833c-1.010-0.71-0.855-2.748 0.339-4.451s3.057-2.542 4.066-1.833zM23.286 13.784c-1.192-0.837-3.237 0.022-4.567 1.921s-1.443 4.116-0.252 4.953c1.191 0.837 3.236-0.022 4.567-1.921s1.444-4.115 0.252-4.953zM14.054 13.38c0.623 0.438 1.698-0.021 2.401-1.024s0.768-2.172 0.145-2.609c-0.623-0.438-1.698 0.021-2.401 1.024s-0.768 2.172-0.145 2.609z">
            </path>
            <path fill="#000" style="fill: var(--color2, #000)"
                d="M16.567 9.796c0.595 0.418 0.524 1.55-0.16 2.526s-1.723 1.428-2.318 1.009c-0.595-0.418-0.523-1.551 0.16-2.526s1.724-1.427 2.318-1.009zM16.636 9.697c-0.65-0.457-1.763 0.009-2.485 1.039s-0.781 2.236-0.131 2.693c0.65 0.457 1.763-0.009 2.485-1.039s0.781-2.236 0.131-2.692zM20.92 18.204c0.623 0.438 1.698-0.021 2.401-1.024s0.768-2.171 0.146-2.609c-0.623-0.438-1.698 0.021-2.401 1.024s-0.768 2.172-0.145 2.609z">
            </path>
            <path fill="#000" style="fill: var(--color2, #000)"
                d="M23.432 14.62c0.595 0.418 0.523 1.551-0.16 2.526s-1.723 1.428-2.318 1.009c-0.595-0.418-0.523-1.55 0.16-2.526s1.724-1.427 2.318-1.009zM23.501 14.522c-0.65-0.457-1.763 0.009-2.485 1.039s-0.781 2.236-0.131 2.693c0.65 0.457 1.763-0.009 2.485-1.039s0.781-2.236 0.131-2.693z">
            </path>
            <path fill="#fff" style="fill: var(--color1, #fff)"
                d="M13.72 12.925c0.291 0.205 0.743 0.063 1.010-0.317s0.245-0.853-0.046-1.058-0.743-0.063-1.009 0.317c-0.266 0.38-0.246 0.853 0.046 1.058zM20.615 17.916c0.291 0.205 0.743 0.063 1.009-0.317s0.246-0.853-0.046-1.058c-0.291-0.205-0.743-0.063-1.009 0.317s-0.246 0.853 0.046 1.058z">
            </path>
            <path fill="#000" style="fill: var(--color2, #000)"
                d="M15.429 6.386c1.372 0.050 2.593 0.705 3.403 1.814 0.273 0.374 0.827-0.086 0.555-0.458-0.893-1.216-2.297-2.012-3.889-2.072l-0.009-0c-0.462-0.016-0.525 0.701-0.061 0.717zM23.405 11.259c1.294 0.466 2.25 1.47 2.685 2.769 0.147 0.439 0.799 0.135 0.654-0.3-0.494-1.476-1.637-2.622-3.097-3.148-0.435-0.156-0.679 0.521-0.242 0.679z">
            </path>
            <path fill="none" stroke="#000" stroke-width="0.4133" stroke-miterlimit="10" stroke-linecap="butt"
                stroke-linejoin="miter" style="stroke: var(--color2, #000)"
                d="M11.908 22.497c-5.065-3.559-7.444-8.906-5.315-11.943M24.933 23.442c-2.129 3.037-7.961 2.614-13.025-0.945M5.342 10.042l2.639 0.829M24.252 22.744l1.432 1.299">
            </path>
            <path fill="#000" stroke="#000" stroke-width="0.4133" stroke-miterlimit="10" stroke-linecap="butt"
                stroke-linejoin="miter" style="fill: var(--color2, #000); stroke: var(--color2, #000)"
                d="M12.065 22.89c0.439-0.352 0.325-1.224-0.254-1.949s-1.405-1.025-1.844-0.673c-0.439 0.352-0.326 1.224 0.254 1.948s1.405 1.026 1.844 0.674z">
            </path>
            <path fill="#000" stroke="#000" stroke-width="0.4133" stroke-miterlimit="10" stroke-linecap="butt"
                stroke-linejoin="miter" style="fill: var(--color2, #000); stroke: var(--color2, #000)"
                d="M11.588 23.372c0.894 0.628 1.695 1.027 1.79 0.892s-0.552-0.755-1.446-1.383c-0.894-0.628-1.695-1.027-1.79-0.892s0.552 0.755 1.446 1.383z">
            </path>
            <path fill="#000" stroke="#000" stroke-width="0.4133" stroke-miterlimit="10" stroke-linecap="butt"
                stroke-linejoin="miter" style="fill: var(--color2, #000); stroke: var(--color2, #000)"
                d="M13.047 24.227c0.843 0.384 1.716 0.279 1.948-0.234s-0.262-1.239-1.106-1.623c-0.843-0.384-1.716-0.279-1.949 0.234s0.263 1.239 1.106 1.623z">
            </path>
        </symbol>
        <symbol id="hero-pink-smile_t-2x" viewBox="0 0 32 32">
            <path fill="#fff" style="fill: var(--color1, #fff)"
                d="M11.803 15.755c1.11 0.78 3.043-0.060 4.317-1.877s1.406-3.922 0.295-4.702c-1.11-0.78-3.043 0.060-4.317 1.877s-1.406 3.922-0.295 4.702z">
            </path>
            <path fill="#000" style="fill: var(--color2, #000)"
                d="M16.312 9.324c1.010 0.71 0.855 2.748-0.339 4.451s-3.056 2.543-4.066 1.833c-1.010-0.71-0.855-2.748 0.339-4.452s3.057-2.542 4.066-1.833zM16.519 9.029c-1.192-0.837-3.237 0.022-4.567 1.921s-1.443 4.116-0.252 4.953c1.192 0.837 3.236-0.022 4.567-1.921s1.444-4.115 0.252-4.953z">
            </path>
            <path fill="#fff" style="fill: var(--color1, #fff)"
                d="M18.571 20.511c1.11 0.78 3.043-0.060 4.317-1.877s1.406-3.922 0.295-4.702c-1.11-0.78-3.043 0.060-4.317 1.877s-1.406 3.922-0.295 4.702z">
            </path>
            <path fill="#000" style="fill: var(--color2, #000)"
                d="M23.080 14.079c1.010 0.71 0.855 2.748-0.339 4.451s-3.056 2.543-4.066 1.833c-1.010-0.71-0.855-2.748 0.339-4.451s3.057-2.542 4.066-1.833zM23.286 13.784c-1.192-0.837-3.237 0.022-4.567 1.921s-1.443 4.116-0.252 4.953c1.191 0.837 3.236-0.022 4.567-1.921s1.444-4.115 0.252-4.953zM14.054 13.38c0.623 0.438 1.698-0.021 2.401-1.024s0.768-2.172 0.145-2.609c-0.623-0.438-1.698 0.021-2.401 1.024s-0.768 2.172-0.145 2.609z">
            </path>
            <path fill="#000" style="fill: var(--color2, #000)"
                d="M16.567 9.796c0.595 0.418 0.524 1.55-0.16 2.526s-1.723 1.428-2.318 1.009c-0.595-0.418-0.523-1.551 0.16-2.526s1.724-1.427 2.318-1.009zM16.636 9.697c-0.65-0.457-1.763 0.009-2.485 1.039s-0.781 2.236-0.131 2.693c0.65 0.457 1.763-0.009 2.485-1.039s0.781-2.236 0.131-2.692zM20.92 18.204c0.623 0.438 1.698-0.021 2.401-1.024s0.768-2.171 0.146-2.609c-0.623-0.438-1.698 0.021-2.401 1.024s-0.768 2.172-0.145 2.609z">
            </path>
            <path fill="#000" style="fill: var(--color2, #000)"
                d="M23.432 14.62c0.595 0.418 0.523 1.551-0.16 2.526s-1.723 1.428-2.318 1.009c-0.595-0.418-0.523-1.55 0.16-2.526s1.724-1.427 2.318-1.009zM23.501 14.522c-0.65-0.457-1.763 0.009-2.485 1.039s-0.781 2.236-0.131 2.693c0.65 0.457 1.763-0.009 2.485-1.039s0.781-2.236 0.131-2.693z">
            </path>
            <path fill="#fff" style="fill: var(--color1, #fff)"
                d="M13.72 12.925c0.291 0.205 0.743 0.063 1.010-0.317s0.245-0.853-0.046-1.058-0.743-0.063-1.009 0.317c-0.266 0.38-0.246 0.853 0.046 1.058zM20.615 17.916c0.291 0.205 0.743 0.063 1.009-0.317s0.246-0.853-0.046-1.058c-0.291-0.205-0.743-0.063-1.009 0.317s-0.246 0.853 0.046 1.058z">
            </path>
            <path fill="#000" style="fill: var(--color2, #000)"
                d="M15.429 6.386c1.372 0.050 2.593 0.705 3.403 1.814 0.273 0.374 0.827-0.086 0.555-0.458-0.893-1.216-2.297-2.012-3.889-2.072l-0.009-0c-0.462-0.016-0.525 0.701-0.061 0.717zM23.405 11.259c1.294 0.466 2.25 1.47 2.685 2.769 0.147 0.439 0.799 0.135 0.654-0.3-0.494-1.476-1.637-2.622-3.097-3.148-0.435-0.156-0.679 0.521-0.242 0.679z">
            </path>
            <path fill="none" stroke="#000" stroke-width="0.4133" stroke-miterlimit="10" stroke-linecap="butt"
                stroke-linejoin="miter" style="stroke: var(--color2, #000)"
                d="M11.908 22.497c-5.065-3.559-7.444-8.906-5.315-11.943M24.933 23.442c-2.129 3.037-7.961 2.614-13.025-0.945M5.342 10.042l2.639 0.829M24.252 22.744l1.432 1.299">
            </path>
            <path fill="#000" stroke="#000" stroke-width="0.4133" stroke-miterlimit="10" stroke-linecap="butt"
                stroke-linejoin="miter" style="fill: var(--color2, #000); stroke: var(--color2, #000)"
                d="M12.065 22.89c0.439-0.352 0.325-1.224-0.254-1.949s-1.405-1.025-1.844-0.673c-0.439 0.352-0.326 1.224 0.254 1.948s1.405 1.026 1.844 0.674z">
            </path>
            <path fill="#000" stroke="#000" stroke-width="0.4133" stroke-miterlimit="10" stroke-linecap="butt"
                stroke-linejoin="miter" style="fill: var(--color2, #000); stroke: var(--color2, #000)"
                d="M11.588 23.372c0.894 0.628 1.695 1.027 1.79 0.892s-0.552-0.755-1.446-1.383c-0.894-0.628-1.695-1.027-1.79-0.892s0.552 0.755 1.446 1.383z">
            </path>
            <path fill="#000" stroke="#000" stroke-width="0.4133" stroke-miterlimit="10" stroke-linecap="butt"
                stroke-linejoin="miter" style="fill: var(--color2, #000); stroke: var(--color2, #000)"
                d="M13.047 24.227c0.843 0.384 1.716 0.279 1.948-0.234s-0.262-1.239-1.106-1.623c-0.843-0.384-1.716-0.279-1.949 0.234s0.263 1.239 1.106 1.623z">
            </path>
        </symbol>
    </defs>
</svg>